<mxfile host="app.diagrams.net" modified="2024-06-05T01:57:54.746Z" agent="Mozilla/5.0 (Windows NT 10.0; Win64; x64) AppleWebKit/537.36 (KHTML, like Gecko) Chrome/125.0.0.0 Safari/537.36" etag="1Dz5KAtI4okw8xh0Oqpi" version="24.4.9" type="github" pages="3">
  <diagram name="etl-процесс" id="uYNhXce7rPB_euxCrPlz">
    <mxGraphModel dx="1434" dy="738" grid="1" gridSize="10" guides="1" tooltips="1" connect="1" arrows="1" fold="1" page="1" pageScale="1" pageWidth="1100" pageHeight="850" math="0" shadow="0">
      <root>
        <mxCell id="0" />
        <mxCell id="1" parent="0" />
        <mxCell id="I9uhqY5Q5MKTuSf9bu7m-1" value="&lt;span style=&quot;color: rgb(44, 45, 48); font-family: Onest, Roboto, &amp;quot;San Francisco&amp;quot;, &amp;quot;Helvetica Neue&amp;quot;, Helvetica, Arial; font-size: 15px; text-align: start; background-color: rgb(255, 255, 255);&quot;&gt;Архитектура ETL процесса для сбора и анализа данных компанией которая хочет провести маркетинговую кампанию&lt;/span&gt;" style="text;html=1;align=center;verticalAlign=middle;whiteSpace=wrap;rounded=0;fontStyle=1" parent="1" vertex="1">
          <mxGeometry x="65" y="30" width="970" height="30" as="geometry" />
        </mxCell>
        <mxCell id="I9uhqY5Q5MKTuSf9bu7m-2" value="" style="rounded=0;whiteSpace=wrap;html=1;" parent="1" vertex="1">
          <mxGeometry x="110" y="150" width="290" height="450" as="geometry" />
        </mxCell>
        <mxCell id="I9uhqY5Q5MKTuSf9bu7m-3" value="" style="rounded=0;whiteSpace=wrap;html=1;" parent="1" vertex="1">
          <mxGeometry x="440" y="150" width="290" height="450" as="geometry" />
        </mxCell>
        <mxCell id="I9uhqY5Q5MKTuSf9bu7m-4" value="" style="rounded=0;whiteSpace=wrap;html=1;" parent="1" vertex="1">
          <mxGeometry x="769" y="150" width="290" height="450" as="geometry" />
        </mxCell>
        <mxCell id="I9uhqY5Q5MKTuSf9bu7m-5" value="Extract" style="text;html=1;align=center;verticalAlign=middle;whiteSpace=wrap;rounded=0;" parent="1" vertex="1">
          <mxGeometry x="110" y="120" width="60" height="30" as="geometry" />
        </mxCell>
        <mxCell id="I9uhqY5Q5MKTuSf9bu7m-6" value="Transform" style="text;html=1;align=center;verticalAlign=middle;whiteSpace=wrap;rounded=0;" parent="1" vertex="1">
          <mxGeometry x="440" y="120" width="60" height="30" as="geometry" />
        </mxCell>
        <mxCell id="I9uhqY5Q5MKTuSf9bu7m-7" value="Load" style="text;html=1;align=center;verticalAlign=middle;whiteSpace=wrap;rounded=0;" parent="1" vertex="1">
          <mxGeometry x="760" y="120" width="60" height="30" as="geometry" />
        </mxCell>
        <mxCell id="I9uhqY5Q5MKTuSf9bu7m-8" value="" style="shape=flexArrow;endArrow=classic;html=1;rounded=0;entryX=0;entryY=0.5;entryDx=0;entryDy=0;" parent="1" target="I9uhqY5Q5MKTuSf9bu7m-20" edge="1">
          <mxGeometry width="50" height="50" relative="1" as="geometry">
            <mxPoint x="720" y="360" as="sourcePoint" />
            <mxPoint x="760" y="360" as="targetPoint" />
          </mxGeometry>
        </mxCell>
        <mxCell id="I9uhqY5Q5MKTuSf9bu7m-9" value="" style="shape=flexArrow;endArrow=classic;html=1;rounded=0;entryX=0;entryY=0.5;entryDx=0;entryDy=0;" parent="1" edge="1">
          <mxGeometry width="50" height="50" relative="1" as="geometry">
            <mxPoint x="400" y="360" as="sourcePoint" />
            <mxPoint x="440" y="360" as="targetPoint" />
          </mxGeometry>
        </mxCell>
        <mxCell id="I9uhqY5Q5MKTuSf9bu7m-10" value="БД продаж" style="text;html=1;align=left;verticalAlign=middle;whiteSpace=wrap;rounded=0;" parent="1" vertex="1">
          <mxGeometry x="160" y="260" width="150" height="30" as="geometry" />
        </mxCell>
        <mxCell id="I9uhqY5Q5MKTuSf9bu7m-11" value="Маркетинговая БД" style="text;html=1;align=left;verticalAlign=middle;whiteSpace=wrap;rounded=0;" parent="1" vertex="1">
          <mxGeometry x="150" y="330" width="190" height="30" as="geometry" />
        </mxCell>
        <mxCell id="I9uhqY5Q5MKTuSf9bu7m-12" value="БД склада (отгрузки, наличие товара)" style="text;html=1;align=left;verticalAlign=middle;whiteSpace=wrap;rounded=0;" parent="1" vertex="1">
          <mxGeometry x="150" y="425" width="190" height="30" as="geometry" />
        </mxCell>
        <mxCell id="I9uhqY5Q5MKTuSf9bu7m-13" value="БД бухгалтерии: финансовые транзакции" style="text;html=1;align=left;verticalAlign=middle;whiteSpace=wrap;rounded=0;" parent="1" vertex="1">
          <mxGeometry x="150" y="500" width="190" height="30" as="geometry" />
        </mxCell>
        <mxCell id="I9uhqY5Q5MKTuSf9bu7m-14" value="Очистка данных: приведение к единым форматам, удаление пустот и дупликатов" style="text;html=1;align=left;verticalAlign=middle;whiteSpace=wrap;rounded=0;" parent="1" vertex="1">
          <mxGeometry x="500" y="240" width="190" height="50" as="geometry" />
        </mxCell>
        <mxCell id="I9uhqY5Q5MKTuSf9bu7m-15" value="Объединение различных баз данных" style="text;html=1;align=left;verticalAlign=middle;whiteSpace=wrap;rounded=0;" parent="1" vertex="1">
          <mxGeometry x="500" y="310" width="190" height="50" as="geometry" />
        </mxCell>
        <mxCell id="I9uhqY5Q5MKTuSf9bu7m-16" value="Приведение данных к 3NF" style="text;html=1;align=left;verticalAlign=middle;whiteSpace=wrap;rounded=0;" parent="1" vertex="1">
          <mxGeometry x="500" y="383" width="190" height="50" as="geometry" />
        </mxCell>
        <mxCell id="I9uhqY5Q5MKTuSf9bu7m-17" value="Загрузка данных в аналитическую систему" style="text;html=1;align=left;verticalAlign=middle;whiteSpace=wrap;rounded=0;" parent="1" vertex="1">
          <mxGeometry x="810" y="240" width="190" height="50" as="geometry" />
        </mxCell>
        <mxCell id="I9uhqY5Q5MKTuSf9bu7m-18" value="Разработка отчетов" style="text;html=1;align=left;verticalAlign=middle;whiteSpace=wrap;rounded=0;" parent="1" vertex="1">
          <mxGeometry x="810" y="310" width="190" height="50" as="geometry" />
        </mxCell>
        <mxCell id="I9uhqY5Q5MKTuSf9bu7m-19" value="Автоматизация построения отчетов" style="text;html=1;align=left;verticalAlign=middle;whiteSpace=wrap;rounded=0;" parent="1" vertex="1">
          <mxGeometry x="810" y="375" width="190" height="50" as="geometry" />
        </mxCell>
        <mxCell id="I9uhqY5Q5MKTuSf9bu7m-20" value="Text" style="text;html=1;align=center;verticalAlign=middle;whiteSpace=wrap;rounded=0;" parent="1" vertex="1">
          <mxGeometry x="730" y="345" width="60" height="30" as="geometry" />
        </mxCell>
        <mxCell id="I9uhqY5Q5MKTuSf9bu7m-21" value="Архитектура достаточно типична и описывает общий подход к подготовке данных для анализа маркетинговой компаниии.&lt;div&gt;Потребуются данные из разных источников - следовательно, потребуется их объединение (кажется, это называется &quot;проброс айдишника&quot;, когда по одному ключу можно искать данные пользователя в разных базах данных).&lt;/div&gt;&lt;div&gt;&lt;br&gt;&lt;/div&gt;&lt;div&gt;В любом случае потребуется очистка данных от дупликатов, пустых строк, ошибочных данных.&lt;/div&gt;&lt;div&gt;Потребуется приведение данных к 3NF - чтобы можно было работать дальше.&lt;/div&gt;&lt;div&gt;&lt;br&gt;&lt;/div&gt;&lt;div&gt;Результат усилий потребуется сохранить в аналитической БД и подключить к ней систему визуализации&lt;br&gt;(например, Power BI).&lt;br&gt;В итоге мы хотим получать актуальные переработанные данные в виде отчета о маркетинговой компании.&lt;/div&gt;" style="text;html=1;align=left;verticalAlign=middle;whiteSpace=wrap;rounded=0;" parent="1" vertex="1">
          <mxGeometry x="110" y="640" width="690" height="140" as="geometry" />
        </mxCell>
      </root>
    </mxGraphModel>
  </diagram>
  <diagram id="gPiyzLJckCizkbGyaHcF" name="модели данных">
    <mxGraphModel dx="1434" dy="738" grid="1" gridSize="10" guides="1" tooltips="1" connect="1" arrows="1" fold="1" page="1" pageScale="1" pageWidth="1100" pageHeight="850" math="0" shadow="0">
      <root>
        <mxCell id="0" />
        <mxCell id="1" parent="0" />
        <mxCell id="Fq_V0Rul2qfUnLbfUY3S-1" value="&lt;span style=&quot;color: rgb(44, 45, 48); font-family: Onest, Roboto, &amp;quot;San Francisco&amp;quot;, &amp;quot;Helvetica Neue&amp;quot;, Helvetica, Arial; font-size: 15px; text-align: start; background-color: rgb(255, 255, 255);&quot;&gt;Построить реляционную и иерархическую модели данных для магазина который продает телефоны&lt;/span&gt;" style="text;html=1;align=center;verticalAlign=middle;whiteSpace=wrap;rounded=0;" vertex="1" parent="1">
          <mxGeometry x="115" y="30" width="870" height="30" as="geometry" />
        </mxCell>
        <mxCell id="Fq_V0Rul2qfUnLbfUY3S-2" value="Иерархическая модель" style="text;html=1;align=center;verticalAlign=middle;whiteSpace=wrap;rounded=0;fontStyle=1" vertex="1" parent="1">
          <mxGeometry x="60" y="110" width="230" height="30" as="geometry" />
        </mxCell>
        <mxCell id="Fq_V0Rul2qfUnLbfUY3S-3" style="edgeStyle=orthogonalEdgeStyle;rounded=0;orthogonalLoop=1;jettySize=auto;html=1;exitX=0.5;exitY=1;exitDx=0;exitDy=0;entryX=0.5;entryY=0;entryDx=0;entryDy=0;" edge="1" parent="1" source="Fq_V0Rul2qfUnLbfUY3S-5" target="Fq_V0Rul2qfUnLbfUY3S-11">
          <mxGeometry relative="1" as="geometry" />
        </mxCell>
        <mxCell id="Fq_V0Rul2qfUnLbfUY3S-4" style="edgeStyle=orthogonalEdgeStyle;rounded=0;orthogonalLoop=1;jettySize=auto;html=1;exitX=1;exitY=0.5;exitDx=0;exitDy=0;entryX=0.5;entryY=0;entryDx=0;entryDy=0;" edge="1" parent="1" source="Fq_V0Rul2qfUnLbfUY3S-5" target="Fq_V0Rul2qfUnLbfUY3S-14">
          <mxGeometry relative="1" as="geometry" />
        </mxCell>
        <mxCell id="Fq_V0Rul2qfUnLbfUY3S-5" value="Бренд&lt;br&gt;(марка производителя)" style="rounded=0;whiteSpace=wrap;html=1;" vertex="1" parent="1">
          <mxGeometry x="400" y="130" width="160" height="60" as="geometry" />
        </mxCell>
        <mxCell id="Fq_V0Rul2qfUnLbfUY3S-6" style="edgeStyle=orthogonalEdgeStyle;rounded=0;orthogonalLoop=1;jettySize=auto;html=1;exitX=0.5;exitY=1;exitDx=0;exitDy=0;entryX=0.5;entryY=0;entryDx=0;entryDy=0;" edge="1" parent="1" source="Fq_V0Rul2qfUnLbfUY3S-8" target="Fq_V0Rul2qfUnLbfUY3S-17">
          <mxGeometry relative="1" as="geometry" />
        </mxCell>
        <mxCell id="Fq_V0Rul2qfUnLbfUY3S-7" style="edgeStyle=orthogonalEdgeStyle;rounded=0;orthogonalLoop=1;jettySize=auto;html=1;exitX=0.5;exitY=1;exitDx=0;exitDy=0;entryX=0.5;entryY=0;entryDx=0;entryDy=0;" edge="1" parent="1" source="Fq_V0Rul2qfUnLbfUY3S-8" target="Fq_V0Rul2qfUnLbfUY3S-18">
          <mxGeometry relative="1" as="geometry" />
        </mxCell>
        <mxCell id="Fq_V0Rul2qfUnLbfUY3S-8" value="Модель телефона" style="rounded=0;whiteSpace=wrap;html=1;" vertex="1" parent="1">
          <mxGeometry x="140" y="230" width="160" height="60" as="geometry" />
        </mxCell>
        <mxCell id="Fq_V0Rul2qfUnLbfUY3S-9" style="edgeStyle=orthogonalEdgeStyle;rounded=0;orthogonalLoop=1;jettySize=auto;html=1;exitX=0.5;exitY=1;exitDx=0;exitDy=0;entryX=0.5;entryY=0;entryDx=0;entryDy=0;" edge="1" parent="1" source="Fq_V0Rul2qfUnLbfUY3S-11" target="Fq_V0Rul2qfUnLbfUY3S-19">
          <mxGeometry relative="1" as="geometry" />
        </mxCell>
        <mxCell id="Fq_V0Rul2qfUnLbfUY3S-10" style="edgeStyle=orthogonalEdgeStyle;rounded=0;orthogonalLoop=1;jettySize=auto;html=1;exitX=0.5;exitY=1;exitDx=0;exitDy=0;entryX=0.5;entryY=0;entryDx=0;entryDy=0;" edge="1" parent="1" source="Fq_V0Rul2qfUnLbfUY3S-11" target="Fq_V0Rul2qfUnLbfUY3S-20">
          <mxGeometry relative="1" as="geometry" />
        </mxCell>
        <mxCell id="Fq_V0Rul2qfUnLbfUY3S-11" value="Модель телефона" style="rounded=0;whiteSpace=wrap;html=1;" vertex="1" parent="1">
          <mxGeometry x="400" y="230" width="160" height="60" as="geometry" />
        </mxCell>
        <mxCell id="Fq_V0Rul2qfUnLbfUY3S-12" style="edgeStyle=orthogonalEdgeStyle;rounded=0;orthogonalLoop=1;jettySize=auto;html=1;exitX=0.5;exitY=1;exitDx=0;exitDy=0;entryX=0.5;entryY=0;entryDx=0;entryDy=0;" edge="1" parent="1" source="Fq_V0Rul2qfUnLbfUY3S-14" target="Fq_V0Rul2qfUnLbfUY3S-21">
          <mxGeometry relative="1" as="geometry" />
        </mxCell>
        <mxCell id="Fq_V0Rul2qfUnLbfUY3S-13" style="edgeStyle=orthogonalEdgeStyle;rounded=0;orthogonalLoop=1;jettySize=auto;html=1;exitX=0.5;exitY=1;exitDx=0;exitDy=0;entryX=0.5;entryY=0;entryDx=0;entryDy=0;" edge="1" parent="1" source="Fq_V0Rul2qfUnLbfUY3S-14" target="Fq_V0Rul2qfUnLbfUY3S-22">
          <mxGeometry relative="1" as="geometry" />
        </mxCell>
        <mxCell id="Fq_V0Rul2qfUnLbfUY3S-14" value="Модель телефона" style="rounded=0;whiteSpace=wrap;html=1;" vertex="1" parent="1">
          <mxGeometry x="650" y="230" width="160" height="60" as="geometry" />
        </mxCell>
        <mxCell id="Fq_V0Rul2qfUnLbfUY3S-15" style="edgeStyle=orthogonalEdgeStyle;rounded=0;orthogonalLoop=1;jettySize=auto;html=1;exitX=0;exitY=0.5;exitDx=0;exitDy=0;entryX=0.563;entryY=0;entryDx=0;entryDy=0;entryPerimeter=0;" edge="1" parent="1" source="Fq_V0Rul2qfUnLbfUY3S-5" target="Fq_V0Rul2qfUnLbfUY3S-8">
          <mxGeometry relative="1" as="geometry" />
        </mxCell>
        <mxCell id="Fq_V0Rul2qfUnLbfUY3S-16" style="edgeStyle=orthogonalEdgeStyle;rounded=0;orthogonalLoop=1;jettySize=auto;html=1;exitX=0.5;exitY=1;exitDx=0;exitDy=0;entryX=0.5;entryY=0;entryDx=0;entryDy=0;" edge="1" parent="1" source="Fq_V0Rul2qfUnLbfUY3S-17" target="Fq_V0Rul2qfUnLbfUY3S-37">
          <mxGeometry relative="1" as="geometry">
            <Array as="points">
              <mxPoint x="165" y="420" />
              <mxPoint x="196" y="420" />
            </Array>
          </mxGeometry>
        </mxCell>
        <mxCell id="Fq_V0Rul2qfUnLbfUY3S-17" value="Телефон" style="rounded=0;whiteSpace=wrap;html=1;" vertex="1" parent="1">
          <mxGeometry x="105" y="350" width="120" height="60" as="geometry" />
        </mxCell>
        <mxCell id="Fq_V0Rul2qfUnLbfUY3S-18" value="Телефон" style="rounded=0;whiteSpace=wrap;html=1;" vertex="1" parent="1">
          <mxGeometry x="231" y="350" width="120" height="60" as="geometry" />
        </mxCell>
        <mxCell id="Fq_V0Rul2qfUnLbfUY3S-19" value="Телефон" style="rounded=0;whiteSpace=wrap;html=1;" vertex="1" parent="1">
          <mxGeometry x="357" y="350" width="120" height="60" as="geometry" />
        </mxCell>
        <mxCell id="Fq_V0Rul2qfUnLbfUY3S-20" value="Телефон" style="rounded=0;whiteSpace=wrap;html=1;" vertex="1" parent="1">
          <mxGeometry x="483" y="350" width="120" height="60" as="geometry" />
        </mxCell>
        <mxCell id="Fq_V0Rul2qfUnLbfUY3S-21" value="Телефон" style="rounded=0;whiteSpace=wrap;html=1;" vertex="1" parent="1">
          <mxGeometry x="609" y="350" width="120" height="60" as="geometry" />
        </mxCell>
        <mxCell id="Fq_V0Rul2qfUnLbfUY3S-22" value="Телефон" style="rounded=0;whiteSpace=wrap;html=1;" vertex="1" parent="1">
          <mxGeometry x="735" y="350" width="120" height="60" as="geometry" />
        </mxCell>
        <mxCell id="Fq_V0Rul2qfUnLbfUY3S-23" value="Реляционная модель" style="text;html=1;align=center;verticalAlign=middle;whiteSpace=wrap;rounded=0;fontStyle=1" vertex="1" parent="1">
          <mxGeometry x="10" y="550" width="230" height="30" as="geometry" />
        </mxCell>
        <mxCell id="Fq_V0Rul2qfUnLbfUY3S-24" value="Бренд" style="swimlane;fontStyle=0;childLayout=stackLayout;horizontal=1;startSize=30;horizontalStack=0;resizeParent=1;resizeParentMax=0;resizeLast=0;collapsible=1;marginBottom=0;whiteSpace=wrap;html=1;" vertex="1" parent="1">
          <mxGeometry x="140" y="590" width="140" height="90" as="geometry" />
        </mxCell>
        <mxCell id="Fq_V0Rul2qfUnLbfUY3S-25" value="id бренда" style="text;strokeColor=none;fillColor=none;align=left;verticalAlign=middle;spacingLeft=4;spacingRight=4;overflow=hidden;points=[[0,0.5],[1,0.5]];portConstraint=eastwest;rotatable=0;whiteSpace=wrap;html=1;" vertex="1" parent="Fq_V0Rul2qfUnLbfUY3S-24">
          <mxGeometry y="30" width="140" height="30" as="geometry" />
        </mxCell>
        <mxCell id="Fq_V0Rul2qfUnLbfUY3S-26" value="Описание бренда" style="text;strokeColor=none;fillColor=none;align=left;verticalAlign=middle;spacingLeft=4;spacingRight=4;overflow=hidden;points=[[0,0.5],[1,0.5]];portConstraint=eastwest;rotatable=0;whiteSpace=wrap;html=1;" vertex="1" parent="Fq_V0Rul2qfUnLbfUY3S-24">
          <mxGeometry y="60" width="140" height="30" as="geometry" />
        </mxCell>
        <mxCell id="Fq_V0Rul2qfUnLbfUY3S-27" value="Модель телефона" style="swimlane;fontStyle=0;childLayout=stackLayout;horizontal=1;startSize=30;horizontalStack=0;resizeParent=1;resizeParentMax=0;resizeLast=0;collapsible=1;marginBottom=0;whiteSpace=wrap;html=1;" vertex="1" parent="1">
          <mxGeometry x="380" y="590" width="140" height="120" as="geometry">
            <mxRectangle x="350" y="600" width="140" height="30" as="alternateBounds" />
          </mxGeometry>
        </mxCell>
        <mxCell id="Fq_V0Rul2qfUnLbfUY3S-28" value="id бренда" style="text;strokeColor=none;fillColor=none;align=left;verticalAlign=middle;spacingLeft=4;spacingRight=4;overflow=hidden;points=[[0,0.5],[1,0.5]];portConstraint=eastwest;rotatable=0;whiteSpace=wrap;html=1;" vertex="1" parent="Fq_V0Rul2qfUnLbfUY3S-27">
          <mxGeometry y="30" width="140" height="30" as="geometry" />
        </mxCell>
        <mxCell id="Fq_V0Rul2qfUnLbfUY3S-29" value="id модели" style="text;strokeColor=none;fillColor=none;align=left;verticalAlign=middle;spacingLeft=4;spacingRight=4;overflow=hidden;points=[[0,0.5],[1,0.5]];portConstraint=eastwest;rotatable=0;whiteSpace=wrap;html=1;" vertex="1" parent="Fq_V0Rul2qfUnLbfUY3S-27">
          <mxGeometry y="60" width="140" height="30" as="geometry" />
        </mxCell>
        <mxCell id="Fq_V0Rul2qfUnLbfUY3S-30" value="описание модели" style="text;strokeColor=none;fillColor=none;align=left;verticalAlign=middle;spacingLeft=4;spacingRight=4;overflow=hidden;points=[[0,0.5],[1,0.5]];portConstraint=eastwest;rotatable=0;whiteSpace=wrap;html=1;" vertex="1" parent="Fq_V0Rul2qfUnLbfUY3S-27">
          <mxGeometry y="90" width="140" height="30" as="geometry" />
        </mxCell>
        <mxCell id="Fq_V0Rul2qfUnLbfUY3S-31" style="rounded=0;orthogonalLoop=1;jettySize=auto;html=1;exitX=1;exitY=0.5;exitDx=0;exitDy=0;entryX=0;entryY=0.5;entryDx=0;entryDy=0;edgeStyle=orthogonalEdgeStyle;shape=link;" edge="1" parent="1" source="Fq_V0Rul2qfUnLbfUY3S-25" target="Fq_V0Rul2qfUnLbfUY3S-28">
          <mxGeometry relative="1" as="geometry" />
        </mxCell>
        <mxCell id="Fq_V0Rul2qfUnLbfUY3S-32" value="Телефон" style="swimlane;fontStyle=0;childLayout=stackLayout;horizontal=1;startSize=30;horizontalStack=0;resizeParent=1;resizeParentMax=0;resizeLast=0;collapsible=1;marginBottom=0;whiteSpace=wrap;html=1;" vertex="1" parent="1">
          <mxGeometry x="609" y="620" width="140" height="90" as="geometry">
            <mxRectangle x="350" y="600" width="140" height="30" as="alternateBounds" />
          </mxGeometry>
        </mxCell>
        <mxCell id="Fq_V0Rul2qfUnLbfUY3S-33" value="id модели" style="text;strokeColor=none;fillColor=none;align=left;verticalAlign=middle;spacingLeft=4;spacingRight=4;overflow=hidden;points=[[0,0.5],[1,0.5]];portConstraint=eastwest;rotatable=0;whiteSpace=wrap;html=1;" vertex="1" parent="Fq_V0Rul2qfUnLbfUY3S-32">
          <mxGeometry y="30" width="140" height="30" as="geometry" />
        </mxCell>
        <mxCell id="Fq_V0Rul2qfUnLbfUY3S-34" value="id телефона" style="text;strokeColor=none;fillColor=none;align=left;verticalAlign=middle;spacingLeft=4;spacingRight=4;overflow=hidden;points=[[0,0.5],[1,0.5]];portConstraint=eastwest;rotatable=0;whiteSpace=wrap;html=1;" vertex="1" parent="Fq_V0Rul2qfUnLbfUY3S-32">
          <mxGeometry y="60" width="140" height="30" as="geometry" />
        </mxCell>
        <mxCell id="Fq_V0Rul2qfUnLbfUY3S-35" style="edgeStyle=orthogonalEdgeStyle;rounded=0;orthogonalLoop=1;jettySize=auto;html=1;shape=link;" edge="1" parent="1" source="Fq_V0Rul2qfUnLbfUY3S-29" target="Fq_V0Rul2qfUnLbfUY3S-33">
          <mxGeometry relative="1" as="geometry" />
        </mxCell>
        <mxCell id="Fq_V0Rul2qfUnLbfUY3S-36" value="Цена" style="rounded=0;whiteSpace=wrap;html=1;" vertex="1" parent="1">
          <mxGeometry x="80" y="440" width="70" height="60" as="geometry" />
        </mxCell>
        <mxCell id="Fq_V0Rul2qfUnLbfUY3S-37" value="Остаток" style="rounded=0;whiteSpace=wrap;html=1;" vertex="1" parent="1">
          <mxGeometry x="161" y="440" width="70" height="60" as="geometry" />
        </mxCell>
        <mxCell id="Fq_V0Rul2qfUnLbfUY3S-38" value="Цена" style="rounded=0;whiteSpace=wrap;html=1;" vertex="1" parent="1">
          <mxGeometry x="240" y="440" width="70" height="60" as="geometry" />
        </mxCell>
        <mxCell id="Fq_V0Rul2qfUnLbfUY3S-39" value="Остаток" style="rounded=0;whiteSpace=wrap;html=1;" vertex="1" parent="1">
          <mxGeometry x="320" y="440" width="70" height="60" as="geometry" />
        </mxCell>
        <mxCell id="Fq_V0Rul2qfUnLbfUY3S-40" style="edgeStyle=orthogonalEdgeStyle;rounded=0;orthogonalLoop=1;jettySize=auto;html=1;entryX=0.638;entryY=-0.056;entryDx=0;entryDy=0;entryPerimeter=0;" edge="1" parent="1" source="Fq_V0Rul2qfUnLbfUY3S-17" target="Fq_V0Rul2qfUnLbfUY3S-36">
          <mxGeometry relative="1" as="geometry">
            <Array as="points">
              <mxPoint x="165" y="420" />
              <mxPoint x="125" y="420" />
            </Array>
          </mxGeometry>
        </mxCell>
        <mxCell id="Fq_V0Rul2qfUnLbfUY3S-41" style="edgeStyle=orthogonalEdgeStyle;rounded=0;orthogonalLoop=1;jettySize=auto;html=1;exitX=0.5;exitY=1;exitDx=0;exitDy=0;entryX=0.505;entryY=-0.033;entryDx=0;entryDy=0;entryPerimeter=0;" edge="1" parent="1" source="Fq_V0Rul2qfUnLbfUY3S-18" target="Fq_V0Rul2qfUnLbfUY3S-38">
          <mxGeometry relative="1" as="geometry">
            <Array as="points">
              <mxPoint x="291" y="420" />
              <mxPoint x="275" y="420" />
            </Array>
          </mxGeometry>
        </mxCell>
        <mxCell id="Fq_V0Rul2qfUnLbfUY3S-42" style="edgeStyle=orthogonalEdgeStyle;rounded=0;orthogonalLoop=1;jettySize=auto;html=1;exitX=0.5;exitY=1;exitDx=0;exitDy=0;entryX=0.419;entryY=-0.05;entryDx=0;entryDy=0;entryPerimeter=0;" edge="1" parent="1" source="Fq_V0Rul2qfUnLbfUY3S-18" target="Fq_V0Rul2qfUnLbfUY3S-39">
          <mxGeometry relative="1" as="geometry">
            <Array as="points">
              <mxPoint x="291" y="420" />
              <mxPoint x="349" y="420" />
            </Array>
          </mxGeometry>
        </mxCell>
        <mxCell id="Fq_V0Rul2qfUnLbfUY3S-43" value="Остаток на складе" style="swimlane;fontStyle=0;childLayout=stackLayout;horizontal=1;startSize=30;horizontalStack=0;resizeParent=1;resizeParentMax=0;resizeLast=0;collapsible=1;marginBottom=0;whiteSpace=wrap;html=1;" vertex="1" parent="1">
          <mxGeometry x="845" y="650" width="140" height="150" as="geometry">
            <mxRectangle x="350" y="600" width="140" height="30" as="alternateBounds" />
          </mxGeometry>
        </mxCell>
        <mxCell id="Fq_V0Rul2qfUnLbfUY3S-44" value="id телефона" style="text;strokeColor=none;fillColor=none;align=left;verticalAlign=middle;spacingLeft=4;spacingRight=4;overflow=hidden;points=[[0,0.5],[1,0.5]];portConstraint=eastwest;rotatable=0;whiteSpace=wrap;html=1;" vertex="1" parent="Fq_V0Rul2qfUnLbfUY3S-43">
          <mxGeometry y="30" width="140" height="30" as="geometry" />
        </mxCell>
        <mxCell id="Fq_V0Rul2qfUnLbfUY3S-45" value="id транзакции" style="text;strokeColor=none;fillColor=none;align=left;verticalAlign=middle;spacingLeft=4;spacingRight=4;overflow=hidden;points=[[0,0.5],[1,0.5]];portConstraint=eastwest;rotatable=0;whiteSpace=wrap;html=1;" vertex="1" parent="Fq_V0Rul2qfUnLbfUY3S-43">
          <mxGeometry y="60" width="140" height="30" as="geometry" />
        </mxCell>
        <mxCell id="Fq_V0Rul2qfUnLbfUY3S-46" value="транзакция (приход/продажа)" style="text;strokeColor=none;fillColor=none;align=left;verticalAlign=middle;spacingLeft=4;spacingRight=4;overflow=hidden;points=[[0,0.5],[1,0.5]];portConstraint=eastwest;rotatable=0;whiteSpace=wrap;html=1;" vertex="1" parent="Fq_V0Rul2qfUnLbfUY3S-43">
          <mxGeometry y="90" width="140" height="30" as="geometry" />
        </mxCell>
        <mxCell id="Fq_V0Rul2qfUnLbfUY3S-47" value="количество в транзакции" style="text;strokeColor=none;fillColor=none;align=left;verticalAlign=middle;spacingLeft=4;spacingRight=4;overflow=hidden;points=[[0,0.5],[1,0.5]];portConstraint=eastwest;rotatable=0;whiteSpace=wrap;html=1;" vertex="1" parent="Fq_V0Rul2qfUnLbfUY3S-43">
          <mxGeometry y="120" width="140" height="30" as="geometry" />
        </mxCell>
        <mxCell id="Fq_V0Rul2qfUnLbfUY3S-48" style="edgeStyle=orthogonalEdgeStyle;rounded=0;orthogonalLoop=1;jettySize=auto;html=1;shape=link;" edge="1" parent="1" source="Fq_V0Rul2qfUnLbfUY3S-34" target="Fq_V0Rul2qfUnLbfUY3S-44">
          <mxGeometry relative="1" as="geometry" />
        </mxCell>
      </root>
    </mxGraphModel>
  </diagram>
  <diagram id="NrEOdQL3F5BtEAMAg6xq" name="1-2-3NF">
    <mxGraphModel dx="1434" dy="738" grid="1" gridSize="10" guides="1" tooltips="1" connect="1" arrows="1" fold="1" page="1" pageScale="1" pageWidth="1100" pageHeight="850" math="0" shadow="0">
      <root>
        <mxCell id="0" />
        <mxCell id="1" parent="0" />
        <mxCell id="G7QavIfijPGkKQ4PRfSG-1" value="" style="shape=image;verticalLabelPosition=bottom;labelBackgroundColor=default;verticalAlign=top;aspect=fixed;imageAspect=0;image=https://gbcdn.mrgcdn.ru/uploads/asset/5551733/attachment/3d0e8fa27885fc7776da73e9948e0522.png;" vertex="1" parent="1">
          <mxGeometry x="120" y="90" width="652" height="169" as="geometry" />
        </mxCell>
        <mxCell id="G7QavIfijPGkKQ4PRfSG-2" value="Исходная таблица. Все строки атомарны и уникальны: имеем 1NF" style="text;html=1;align=left;verticalAlign=middle;whiteSpace=wrap;rounded=0;" vertex="1" parent="1">
          <mxGeometry x="120" y="40" width="440" height="30" as="geometry" />
        </mxCell>
        <mxCell id="G7QavIfijPGkKQ4PRfSG-3" value="2NF" style="text;html=1;align=left;verticalAlign=middle;whiteSpace=wrap;rounded=0;" vertex="1" parent="1">
          <mxGeometry x="120" y="300" width="440" height="30" as="geometry" />
        </mxCell>
        <mxCell id="G7QavIfijPGkKQ4PRfSG-4" value="" style="shape=image;verticalLabelPosition=bottom;labelBackgroundColor=default;verticalAlign=top;aspect=fixed;imageAspect=0;image=data:image/png,iVBORw0KGgoAAAANSUhEUgAAAZoAAACCCAIAAADwlpl2AAAa/klEQVR4Ae2dQXLktg6G+2qzzC7lqrnD7OYKUy6vc4IssnEWc4Dsk0rsyhWyc2UxV8jO74EggB8iJTXU7XFLhGpqzKZISfz4AwTVLer0WrY/n//iRP5/DoGXl5dzimUZJpC4QkpIXJtxnf58/ov/nXJLAkkgCeyQwItsJ3aEfz7/9fc//+W/MwmcTqczS2axv//5L3GFZJC4org0mkt3tsWJp+CigguVH7xwqiskgNOpOrHX19d0Z+nOthCICi5UfvDC6c5CAkh3dqkBp+CigguVH7xwqiskgHRn6c4uJRAVXKj84IXTnYUEsOrOfv/Ufrvxwy+/XfBdwc+fT6fPv4eu8hqFqSGfvpLp/vbTj5M2cf62s3jBFVyudS/3P9Tzbjv+wWp5XOxJUWNfflZpff1yOsFHzX/TxLucdL5FHpdpWFTR5nzXwYku45aIneXOLrF24W6Ub8KdoUem/tjucVrBnU4/3v+h7U13pigo4XH99/cfv3w4nT789MI6KSONuDCxE8rE/po3/lZs4Rw5abji21yVx9U6rzbH0f4erRBi37WbZminO6Puv6QnWsF9+AHNL92ZMzCP679mbCNc6t3YGi/pnbA9i3GGK84Y2IXH8bha59XmONoXnj1U/bt20wztC9wZjas/3v9Eoc2pDLDUHkkTiKYA00EFU5q3OkFzxk8HlImbHtwN1GVsLwfAgKjbo9bxHe4XiLgnODqX2KRrUYnMa4trgYaStlSOQM1pQHXbuIPMHq6Zy+ZOof/L9sMvv339Ar3/+ycXBXcO0oNGXcMbzjm05KfPMMMNqKtz9pAvmCu8hstULRbHjRNzuL66GoAXd9Nc2zfkn+XORABeB9zZ7G6K5tj8ijWW+QIX4GlCSbOASDqlFrgVs3/KbF0bIysuWav//Q/0JRSYoWCF4byiQu51myFK/swggKfoC86uB90ZWKAWWMXogsdO8IIXc/tph2sZuyCC/vIAF2egUEuhaYLv+IjNy4n+/ocKyA07E8w73h5yuIrgJ8YI90nsgqntfNvxyuoCgNp3Qg+AB7rpuoo9y53hOGan1/ZoIMbuQJrHt0W0rrohSQAatFg6rHrDehvl588a7HDQV/LdWE1H03PZRZo/8p09sQRsi1U5y6m1gvNeu39hXnBiV3gZirHYmDXNtfqsK+zReLeKDhe2t8UuBMBOKErlUVMTM61z6qpl3OmsgAiyMJGTkgszkfQ7cebU12TrcOH4XXGZqr3PlXxsMqa1mSF14RG0v+RQm7rpmqz4zuzyUwHCRa9eE9g2TEvz6mRTQh5qbQm7RD3uyMBCpPP1C4ZpflAi+6cqfsPZWSM1Ox2cS2jqNWvrzk7MCo6YnD59lebQASnNG91fM6+97M7oyv1WvXzTRmnO2Rf//Y8wi6u9ZukU11/Vy7zc/yDQ2oqUY91tbZQDlhzqiyIYTRR61GuEN6iutyK/hsua6Shp89EwMW0oIuqyWtBeyXQXcG43wXH6/RgrcHvRGSvp8+8/f7Zoqz8Uu/FztdlzHU8VycPaULx6KFdgQXClg7980rBROp7MSdMoMkxrgcn4eY1eNwv/7kfzuNqvAiBHCDg7IUP98f7rLx9W+ss7KW4m4i1UNdCTgRP6JaYuJ4kr4vW4TMNyCsgRXGWX5GOTMW2FCZTF/st6wCNoSTnUpm66Mrc3d2dVKASiUpPoDL9PJPoWW5XC7ucOgkx+NcbhifRZne0u94oV9txZwct1l6AvCo60Ync3qBUcU3B+aQVKBNOTJov1XuJ5xQaWmvPWZTyu6Q81ipeXsEsITPqLCJzWf7qItURy4OOsL9x9tHLwDep6K6Qel2lYuglzLE1tPzf2RzNcHdcBoAaAl3WTNOQ6AM9yZ36m8/9P59lhMc5Pn+uUUL2VaIsaUKU5VWexdjFgbnDpIb4Qkbt4Mc7V488AmnQ2tgkOqGPO2YkVwVFnq69kL3Yip/a1fC/8h3z/y1PyGXfmQDH8sy9vhsZ11LPh4B4XXwZ1jWzsSkq+2AnfhK2qq4GtIl1qiKnLtGTnwpBE1fXh85d66zamrqXL2EBJq3hcpmEp4HNIP7yJpFFRmFa2RUgGal1dBrBanB6qnl160Cn/rfgIh3r8VXd2wXUgvqD59WeXwYNMmvpGH73gLsB1k627OrQr4CJdic0cHdoVcL0Xovfoptt0Z/BF73t1xtnn3bHgzm7jFZ3a5bgokqo/5Tn+4HE5riv2XehQ79JNt+fOSoy6NnOc07HO5mTuwn/fUv37FVxIndcqfBku7l8IzeoEx3e3ze7ndLKb/MtwbWwmzD0BrE3YVw/bdNP3Gjjf0p19rzZcy9K2HeddBLftUm+hVuIK9ULiiuJa/t3ZqicevUAKLiq4UPnBC6e6QgJw0Vm++gRi60wmgSSwPwIvstni2hqwZWKVAA4Iq4WzQOIKaSBxbcaV7iyErhZOwYWoJa7EFSIQKozqSncWQlcLI8Et9Qerk7hCHZ64NuNKdxZCVwun4ELUElfiChEIFUZ1pTsLoauFkeCW+oPVSVyhDk9cm3F13dnTQ/vlxsfHb/UkuvfhCU77dF/rPDxDLiefH05Wvdm7w4yu4L79enc63T3+C+359/GOc54fTieHCwodPznBVUD11EKUeBuXFb37Ft6D+/rK5uaBMKhj2dRmM0Bcs+6s45XKCclt3ZMf0wRlq7lqQq/uiOiRoDT02+PHu4f7u7tfxe2/vr6mOyt0HC5UCKVlACBWJ1Yd+buBbdXhInd2d/exkmGx1dBhYERidPQXcUXdGY0V1dOR/uqgAa7t2yOgL9zJyA+mTiRYyXIEiraK7gzxj5fu4KoQTE7kwsowOR6eaYs9LnJnZEEGpw6cB7OpKYWzPyOuoDvTcMPZKrkwiUow/fr0THHc8QZbJMjYn+6ZgNkn5SsudHMlDClzKglMGBFPs4445La4RKuKy8lG9g761+Mid/b4bKEDierj45MLYAkjbzapMplJ/FFw1sjuVOdYlGclqyBxaIFIhSZkYuY31DWIa9adCR+PiVqu0/gCmm4VTSOySZsHcGeKovhuHUgJV5GIuTM14P4MHdVzQ5K57FJQcHgkEkaVE0tIzVI1hsVHSXtcLC0zsW+/0g0NsCkYCWzybuWLt6o8e7VMkNYdZuZPDx/vxORN5DfVE4hr1p2Zm8drt3bS3TMaN9Kd8a1D58LEGlt3Zn7NsLpBzxG2MrtOoeCsIYRCAwcyP3Ft5bbsEaNUa/tiyuOqVsZeTEMHc0yqMTqmurbCc8pQ98LpnSDVtYlp//t4d//0dC9D8vSAcJz3SyKuDe6sRqQ2kzKICNTaZ+gtb98pJMgamgSzNT5VqYloeijYkvEAQnjfkOzqPa6S73xZIxvlZscYKOVxiWfhm7My2pmQRFoFEDos0FV1Q+qtDKYdh/KsAA+xGglyPDiZddlR3jWFuILuzCIynnLXMATiC4I4iew8sndt+pVOjgQxmOfDW3vVLFVzmoArAXqQe6Ckw1W/B5+6bAdBjPZADAJN8bjEnRXT0+8EOhqjM6A70zOSkyqeqLfXCdLcGf1WQeMyitEeHz9Ou0xP8L4JxBV1Z/b7DHeXR6FoAppo6CFz10kkSK3TmSa3Sr2YJgwLKKazt9x6s7uTu4ZkF4+4+MbzZMCjoobINGaHGCnlcEEAwXfxGR3YFDgpYshOB2QGt7ahlkK2krRXtVfEefeR45VyB+0mZ5rn/lADJz8lLfeDSkTqc0hrzBruhpgAEaLl7jkFgjM1QINIYeTjeg6L7ZnxqlUXJXHejY6B0LpwEnCxv+aW1v9tCkPWWLZbtZxwyzdVQFxwh9p5fG9TJELeVFEoMxxu1U7tdx6kUt5Qe0XDtSPAY25q0ZtWQlzd6OxNz36EgyPBI7TnjduQuEKAE9dmXOnOQuhq4RRciFriSlwhAqHCqK50ZyF0tTAS3FJ/sDqJK9ThiWszrnRnIXS1cAouRC1xJa4QgVBhVFe6sxC6WhgJbqk/WJ3EFerwxLUZ1ylffVK/1ck/SSAJ7JPAi2wZnYVGglo4x88QtcSVuEIEQoVRXenOQuhqYSS4pf5gdRJXqMMT12Zc6c5C6GrhFFyIWuJKXCECocKornRnIXS1MBLcUn+wOokr1OGJazOudGchdLVwCi5ELXElrhCBUGFUV9ed2SNg9kWHPUane/UpTjq7PgtmT43pReWrT+D5aqUyTgIFR8s+0KPOdXNq0Wc29UHocRhBSz0uNjdna+Vx/ZM9dAl1B0wirll35nQGkMhtlQUkNEE71Vw1oVVYo+YNdceOE0hQmpGvPhESzV+HCxVCaXnsuTwIzarzz1c3hzt6hsNVVtTIV58s9DniirozGiuqpyP91UEDXBs9fK+usIRs+eqThb4YYhcKzjfY5EQubLLOki86ziePi9Y702XOCoR89YnTAuIKujNd8Qbf6+EWjXNrieSrT5p3BXTeNOHmX8cKY1l3KDinxLLYVBn8nGx8meE+eVxl+cZ89cm8ChDXrDuTmxv+HgdEZLAS0zQisxWsykUcb+6ABEsTdcnQfPVJR3cNrlqm3ETjAJ8l1L8t2zniobM8LpaWmZgueC33zmAksMm7lS8Ln9VZFFii1vIBMs+3zMzz1SfN26sA4kFk6AVXbh3qRMmk0HsxHd45EhiHX1d6iosbTij0vgRZly6FSvcojhilSoev/PW46kiZrz6Zo4a4ZqMzvf/ljhKcbHLdo7szNkUXztb4VHGJF+uhaKvL3XGHfscfUHC1Gc6XNYvcK7cdN3r7pXtcEvjnq09miCKuoDuDlcsxiIX4goxz4gp7NjxzaTvJRoLIgS/f2qtmKe7MvgKGlgI9yD1Q0uHKV5+s9azHJe6smJ5+J9DRGB2WrG9yq4ffz1Qye3tVmVTdJp4k1Hz1SddcDf1aR+5lPwqOWqczTW6AejFNmGhAMZ29+eqTYlXyY6C96OG614nqgjvU9aedHCuATYGTIplxaA8yy1ef6JsUYAalP+QjUmXTHJEg5z5POxfQT3ft9DMIDnWjrSGFkY/rOaySKQSFFSGq29FmmpN37UBLpcG/fqvgyBrLNvCNswkudGcYK3ibUpOEiRFpTzYYbstvpzxkK4naKxquHQEeUzV+MwkwxtfuZPNmrvRWLwQJ3uo13tB1Ja5QZySuzbjSnYXQ1cIpuBC1xJW4QgRChVFd6c5C6GphJLil/mB1EleowxPXZlzpzkLoauEUXIha4kpcIQKhwqiudGchdLUwEtxSf7A6iSvU4YlrM6589Yl8+5N/k0AS2CeBF9kyOguNBLVwjp8haokrcYUIhAqjutKdhdDVwkhwS/3B6iSuUIcnrs240p2F0NXCKbgQtcSVuEIEQoVRXenOQuhqYSS4pf5gdRJXqMMT12Zc6c5C6GrhFFyIWuJKXCECocKorq47s0fA7IsOe4xO964/s2kPiOmS8KErvdXCSJDXITBQp/ouhflrv+kn4OYve/sej4vfLKHA4DlBfWZTFm3ffso91/S41NyEmFninht5vWtHXLPubLLIj56dPFR5olUTtEtXjNAEv7BH0JcHj5370wPuMYEE3bIq1BjSX7NIC7ZydHdGYoCHoiua8iB0s1wEchslvaiu8mR4S28UNp12Iq6oOyNbrZ6O9Fc9FLg2wt1xhVQYxuHOVe0pCwk27qws5LIkuNHdWXd9t76P25Mornaty+qy0OFqJ9z3gRBX0J2hV7I02iemAZMVhszdJpFg487A41MDbbIgXp4RPdbVcCSA3S2M9Qv3uKj5gkLrzshG94+U8LgmcoKZEDHpq+vhvojr/ol936MsP/XwvPg+3H1CRlyz7kxm6vVvG5EVlBxwOYF2x14K3w5kt0gQJcWwYKYJVkrTcMPl0kuh3D4l5q96AZewYgmpcR7nvoQncdanFhd4fwIlU3VQl4ULpYDaWrkdyZDLDZ86kBzJHhHXrDsDgtAHRE2lpsv+shZrsdadFY7HmWn2FtjDcAMEZyLDhY+hAN52BMwHS6LgePVKGB0ZXWEi0jqSsW3oSocL4q8aWaircsZIYVdxW0RSBgkfys3c195whTdVBXFtcGfimMxWkSCmqdXH82Vr7gw0BAKCddw9Ii/KmxLKtS4GBTc5ptx1bZmIzCYVBvjocTWTTSVQIi83i6Iw35NEBUKarFLdoh5wnwnEFXRnNFaIzsAOZWSoMYhGdsWXaTS3T1q9q0aCPNnUJlNx1Y15/Gl01h8/e+c6QJ7H5RqkytEE7QZpudJjfPC45t1Zn1K6s9fXP5//AqnME3y1r+1kXC311IA1MfPCHjjLjpOLgiM9de5uEBkeCUqBOrHCwjsGsnzpDtecQiDfSWv50Efc63CVyaYbLK3J6LnIZnOyORuduSCWPmiQReDKpjkEmCTIufI6D82pO/QXHtYfe021gtM2UsKF8YpL76+xCof9ZpOj1wrMGSp5tLI5gHsVyebrbtXlKLnjmro6IyhOFHx6qMmmA5YfWgJecO3+zHEEEpfDsfYhca0RcvsRVzc6c6XzQ0sACbZ7M2dCIHFNgCx/TFzLfCZ7EVe6swmcsz4iwbMqjF0ocYX6P3FtxpXuLISuFk7BhaglrsQVIhAqjOpKdxZCVwsjwS31B6uTuEIdnrg248pXn9Qv0/JPEkgCOyXwIltGZ6GRoBbO8TNELXElrhCBUGFUV7qzELpaGAluqT9YncQV6vDEtRlXurMQulo4BReilrgSV4hAqDCqK91ZCF0tjAS31B+sTuIKdXji2owr3VkIXS2cggtRS1yJK0QgVBjV1XVn8CCYftVhj9Hp3pVnNvFBTnn6OnSdt1sYCbbLN8rTc3PXj08Oz5U5VL7H5Z7ZdMLQZzbtAeFDcTizMR6XmpuYolnimcc7eDHENevO5p561dUONEG0dDkETeSrT2ZVNLo7o+ef2wV4abmb+pT+kR6QnlXB/A60z2b5KRJPh9780Q6/B3FF3RmNFdXTwXJL4NoId8cVUmFZKG3/gJFgIzhbQ2mmoaO7M7e0mTDq+zjZO9TfZXVZ6DAUlPnGIq6gO0OvZGm0T0zDJVhhyNxtEgk27gw8PjXQJgvi5RnRsAsEUfMFhSpgRja6f6TEorpgJjSvrnz1yXT5Rpmp179tRFYM1dYjVIF2x14K3w40528Fh7hspVlc6Zim4YbLpduZ17GsdwGXsGIfp67f3ZY9Foz11rS41Lh47WyZbMIYYOECZZqtlduRDJniX5laHckeEdeG6EylpgttsxZrP7XurHA8zkxz7V0BRU/soUxk08W1RZGTwXZd63ssgYLLV5+s9qDDBdF9HTI1LCB1qTHmq0+I6wZ3Jo7JbBVGCYxHSr8dz5etuTPwUPDFCLyTAnENsS6+t09nznLXtWUiMnPFh/jgcU3uXQCBEnnhtKCMkZ4kKhDSZJXqFuGQe0wirqA7y1eflA5Hgs29M3Bn5vGn0ZlMsqDwHqV03jV7XK6OxvKaoN0+7nAVBvjgcc27sz6ldGf56pOgkSwKjvQkc0nQFo2NeO+MpwlYOHgR+ynucEGMUL6kkygM8iVk208Lr3qlDle++mSNLeKajc5cEEsfdJbev19LEiyb3rbUnLpDbkOuXd4O9iNB/O6yttSF8YpLv85jHzfsN5sckFZUqhbqdfJoZXMAd6CH615iqy5HyZ3M1NUZQfEHoT491GTTAcsPLQEvuHZ/5jgCicvhWPuQuNYIuf2IqxududL5oSWABNu9mTMhkLgmQJY/Jq5lPpO9iCvd2QTOWR+R4FkVxi6UuEL9n7g240p3FkJXC6fgQtQSV+IKEQgVRnWlOwuhq4WR4Jb6g9VJXKEOT1ybceWrT+qXafknCSSBnRJ4kS2js9BIUAvn+BmilrgSV4hAqDCqK91ZCF0tjAS31B+sTuIKdXji2owr3VkIXS2cggtRS1yJK0QgVBjVle4shK4WRoJb6g9WJ3GFOjxxbcaV7iyErhZOwYWoJa7EFSIQKozq6rozeBBMv+qwx+h0rz7FSWfXJzTx+bKyOhAfwhUOXe4NFkaCenmdpZB0RQ14vlrLj5OY4tJnM0ka8gg6PrNpDwiPA8la6nGpuYkpmiValZFTiGvWnaFXQli62oEmaK+aqyYwk53dgboBCQqcb48f7x7u72zln7rQTTFXxCIVxvk7wUV+v12Al1x/fUr/SA9Ib+hlj4vcGRjjEEuwhKAhrqg7A7iw3BK4NsIN9OXCjmXPSLC28PmB1sObNFOjM8Ew5t8JLre0mRDp+zjZO9RfjwssjilMNDYUml5jEVfQnaF9WppXvPlWzoVpOzn4O8vcbwoJcivERL34FBFKkDJ5s3lWmaiWzAPFsNq/Hld3wOvLRo8wVMLj8orykx5cnEpiiIL3viy1dP/E06bH8pYAflEAWWLZpPzu0SKuWXdWGy1/auPJFPUu2HnvCiBL9rdIdg/wFQmW1iiKVxdldNwZqFN9nCZ4Vt5OxHZOzOMiArrJ3Jx9nO5Sje285Zsuv8UFrodAyVQdxgBVWlnd3hbOLtaXrz7pTRinqx6rDbMWa9dJnOJ7krBaMOL37e+TF1y5dag+CD2+ikwdliag0Y4YVocyu046XNRAUZeli5XKSEkRxBGj1DM70eHKV5+sUUNcs9EZDAhwPLVPvM/tXncCIwbUgxd/uNydfkCC9V1hGm+URA06FJd4sd5NbrZkrH8cv8/963G5Ppe7EF42ys2VHeWDxwXh/AQAicpvNKZ6kiI8qgrpng4nR9/NR8QVdGfBV58AkvlegUJ7SSLB9j0dphU1S1WSJqCpLjqD/MMkHS7fKm27Jmg/cRt3vulxzRtOn1K6szd89UkVJVn4gQSKgqOm6UyTbVW9mCbMi4E6O3vLrbcDgWIeiAtjhJKWUNQQld8wTpB6J3jsTw5XvvpkrbMR12x05qPYLa8+oXexyVcqR7px5t+zCe7JuJf54/1TiTKKuYKtlsxKV2f0RwXFSFBwlEM0pgRc/sA3zry66Pfp/ndnJrKSor11qwNARmfT6GyCLD9OCUztc7o/PzsCicvhWPuQuNYIuf2IqxududL5oSWABNu9mTMhkLgmQJY/Jq5lPpO9iCvd2QTOWR+R4FkVxi6UuEL9n7g240p3FkJXC6fgQtQSV+IKEQgVRnWlOwuhq4WR4Jb6g9VJXKEOT1ybceWrT+SLofybBJLAPgm8yJbRWWgkqIVfXl62VBu1TuIK9Xzi2owr3VkIXS2cggtRS1yJK0QgVBjV9T9EbAcpoCfzXQAAAABJRU5ErkJggg==;" vertex="1" parent="1">
          <mxGeometry x="120" y="350" width="410" height="130" as="geometry" />
        </mxCell>
        <mxCell id="G7QavIfijPGkKQ4PRfSG-5" value="" style="shape=image;verticalLabelPosition=bottom;labelBackgroundColor=default;verticalAlign=top;aspect=fixed;imageAspect=0;image=data:image/png,iVBORw0KGgoAAAANSUhEUgAAATcAAACGCAIAAAA3oVoBAAAVzElEQVR4Ae2dMXLkthKG52oOnblUtXfYbK+wNTWxD/DKwUvkwAdwbgdS7RU2UznYKzib9xpAd//dBDDESKKGmGa5TAzQBIGP/QMgRGAPZz5eXl44GOfLBALXZUZgEbgAxuWgw3WQK1yCxEegSiBwVbG0IgNXi0w13uEKlVYpXY50HC9fcN8WgWvo+TtcodIhemrsOGpChGoEAleNSjPO4QqVNkn1ExzHvnGkBq4hH3C4Di98HOIIAkHgZgiwLumsfenhcPj2/d/4byWBwLUSVDYLXKO4znCESq9smMLtRt1uyP7OjQ8HFeb5fNYf4XZDnhG4AtcQgSHjUOmVnaejHCp1QPo/A1efj0sNlYZK34aAc6z+z1Bpn49LXanSvz4vJ7t+/u+fr5he+u3L4fDlL1ea9/9JFfn8B/nln7/+4uqU468rQ8PtXo4/H3769aWZ59///enwy/HvIZ3gs/j628AjuFSYgayGClwx3hBX5e7Nx7EhgaEyDKj0NU68LNNNqBQbmj++HljAy9JejNnI7UjVKvvU0KwXaqh0r4oNleqTI6dH3Y60rNuodNG0DQlvyFixXGyhrjDYBtcVBbvNS16t0jxm+5U6okNq5mUkWUZ6C4MMAh2OwvkoY2DyJ+m6KUMeG0vmRk6ph0kZXBw92hGv0yR1p+u7JuPHq9xuWc4GnIavaOGrBhfg/Pz1Mwy/F8xNdar5v2HkJrg2rdEbwllmNaBSVlI5FxVlz8sqSoPGLM7kMcnjs0HWQwrnC0WlZFnUQl6oly8VCyqSy799B98Fg2VVU4waw335cWbNjL0llmtXuJ29dW4OGnDqhe8XT+tObRy3a9B/uqdTmIPByNihXsLVOWyBa3VhXlmXDS4fUKl0bqZY6DoYFqdJjijXiro4YLxElUNXichL//bbF30l+yYGf3xlkf/77TvlJvcy5SzPzErF9aVY/sFnfNntBAjlzMVowKmV/N9U5eZggXmmVkPuZWokqC0lA5AbrMHq1wvczmQLXO27j5b2w+23Uan6FukwdZLsVeyviamqVPT2x1fsFmx/TtnSJfbozamKPPIcr1OpOPf4A77odlA1p9IKnIZbGFbWRhRoVWprxM0c5WOPK8f5tgwDCt8E10B5rq7INhduo1Lt31ic/3LAuBe6MoW//PXbF3NtRYFjXYE6Ot4rs6YiOd2uliu6XS55ylNv980IhuNNXydMmu7F0NRAYiRA95V7mfwFte1LV9fxDT1yG1xvWOCPzWojlZb+EAZ44lWgFvJd1WEyPuCfE8X5yl87cw/AHv89jwlV1TWyagz3TU5PmfevVW0sc0a3a4jE3lrH8/wOCXCW+ZeYZKOIqMzcFSscEqEZgOQ3fLgW604P4tq2qVnOS8rfCNelYlxd/o0vHFCpHSP9/5e8N7KjkB9wWJwmRX7+Usal4mGi0m/fUx+Scy8zRlkPydusA5F7lYNvxOLM0ZJ/g6OTCmdGZ8hw/Okat4MamfIknaRb8r0yMZghbxQbGwiqAh9mpKpwDDSx//oZXuyJfzlMJisKgIW5MrwhritLuA2HlXdZqdJXVBWlO+j9/B71irsP3nEltaWZc7ulQcQggcCFNC6Gb1mlf31+Xf92sfJvaBBuNwQzcI3iguWl77Fy7bq+NL0lmuHiQK+Yhso8ntOzGU6/cf/8hm4HY1Et+/avjkNuNGr8hrhGb71H+/fvSwfU9cbK2fJ5hNsN0Q5co7jeuS8Nld4HgVG3G7K/c2Pfl77wAYOtCAaBIPDBBFiXdDY7qpzjWE3AtXarr7tTw8A19OAdrlDpED01dhw1IUI1AoGrRqUZ53CFSpuk+gmOY984UgPXkA84XKHSIXpq7DhqQoRqBAJXjUozzuEKlTZJ9RMcx75xpAauIR9wuFoqfTotp7g+Pf4ot5LU0xPc/OlYrjk9Q2wOPp8OevkidYcRjiPX4Mfjp8PD78zpn8eHjGRZd0oy9DiHOc81XOJFhwOieD6Znxd4EHA6juiJF665/WSHq6fSithS/UiNCYoEKFrgSkBgUMzh/lQqipUAEynqvWOVJgLSnP34/UGVufQfxlY5DxlXrr/RqNerlJrAImDoEECx5JSi8NTBPpyOD3enUoLz8PhP8gMYSiSPPJyOQz3GjTrT+mI5twNvyXlAQzYkPAC7vjC3b+lwjfel6HwaBspnDJ+fnmkoQq65HPXdPq12CR1HNoS6o7dB+MfzEw2IIYavnflscUFDv6x0IvNIvSsd0t+ezzpCLn0AWeaDW8NlbvuMsbjs1/ZQIyXCILh7hP4zgcuAyDux/wS4lOudqlQaJgMtYb5nlWrjDh4nwaS94j8UVgcrkXj5pBgHVCqqE4AUMA73dAKIYv90xCaQLgqV+rmiSd3LuAr8MG6HMgObEkQyYmm87qwOhsbLrHYbY3C5f3MNKtUekwi4othFU2dHvDnPO1WpTF0unWkZA/TnC1q3a3uXexcQZyNc9siTupNitLi6I17pG63TSP9p+lVt3pJK3bVzq5RqV/4SAP6Hzf9ykmNS97Kuor+c2y1mj6h7LAyRjKgUYWqu077eO1zjs0dnBapksQlEygx0bpXqVJB4FVVcZpIkwDgQF8RNHHRul96b4LWIfIZngNB/lCcypKYQXlwn/IOWw9VTqR1h4J+eCVM6DCASbY5dfNUwuUpzy5XqbqbNyMnSIdNIIkT0RYmcN+DcLlVUvAhdy3aPqtIzzvHyyMUaT0TP4WqpdKIav09VHMf3uck8uQauoWfpcIVKh+ipseOoCRGqEQhcNSrNOIcrVNok1U9wHPvGkRq4hnzA4QqVDtFTY8dREyJUIxC4alSacQ5XqLRJqp/gOPaNIzVwDfmAw3V44SNPRsb/g0AQuAUCrEs6R196vu5wrd11mdzPVYFr6Fk7XKHSIXpq7DhqQoRqBAJXjUozzuEKlTZJ9RMcx75xpAauIR9wuEKlQ/TU2HHUhAjVCASuGpVmnMMVKm2S6ic4jn3jSA1cQz7gcLVUit9Y8oyXfowqqWu/46Xv0fXyoQLfqLHjyKXEj8LzmqFED+pOnzTz4VYOcSYTnhEXLJ+imqbPv8GRzLe7HoVZ4OET5/mNuM7XrC+9Yk0MfVkeu5OljQXxI3sK80KQeRysXhN0O7v04sfjp4cH2OjDpvrcRKV9M3/Z3n4jrutUSh1p6QSo2SutoODLK7akl0gtZexOVh1KAMm9udFoeY3bgdvQErZPj0+/P8haItfTtm4UKi2rhERphhQOSDSMIz0Mx+5kCR52oUrzXlVK+4zxIOL5RMvQklbTYIOcB/oAfjfg7XZLZ5BHZzBAS51BMgbLh+OJ3i7gdUPZ33bINGr9ES8TKmdgJ28RghvgpiGxNI2Zxnwtn+PIDx1aKHwVx95DTHETWo6c9exwSYf5dMyaFEd6OpXRGXiUdga6AwF6FISVf9KtOOrOuDpcvdmjdl8qlRe4wDRUmve276s09QZ1wjvzqFXFdW5HuqJOj15K85bFRa65a3VZwgt86UvNfnfG92SeUixdZrv46XBdp1Iermgjp20Y7CSiQKC108hdhxxHrgtwwFEuhst2Kjyu4yvnPntceYirA92068Lx6Yd9QS2juE8Psv+4aA88Sv7iIIM/6kXEco9gHa5xleJLBQzkZAzjZo8yI2C6R2iVMiNH7hns+zzAkQaeMoKeoZLvpFGIK1UxjWyx50yKfTwuO4D8By3tcvN2KuBRti9lgHeuUm2lDAjpLiTAvObfj1eqrIOLxu5kZHBfvWj2goVKz09HmvmHMX/+kwy/TAEocjOebRKXA5Wa3Z7JIE0XiSW44W6CDlevL5UBBAeYoP5bABJD9U80yRbQFy7IdDeougV1HKXuZtosuRoR4WlG4mAPY9+9464THa7ScLP2ctWcrgTp6Vknw9WmsC0eKMbyr0Kp5Q7BOVwtle6wZtsW2XHc9ub7u1vgGnpmDleodIieGjuOmhChGoHAVaPSjHO4QqVNUv0Ex7FvHKmBa8gHHK5Q6RA9NXYcNSFCNQKBq0alGedwhUqbpPoJjmPfOFID15APOFyxO5mdco1fQeA2CLzAEX3pUBunxq6104QI1QgErhqVZpzDFSptkuonOI5940gNXEM+4HCFSofoqbHjqAkRqhEIXDUqzTiHK1TaJNVPcBz7xpEauIZ8wOEKlQ7RU2PHURMiVCMQuGpUmnEOV0uly9VA+jEq/Huvl7/jhQ8seblDs2x7SnAcueiwcu0cu5MxlfMZccHyKTJIHgKORB/oNl1l11/nKo5LIcR13b5HA2ti8CP79KE5PIxLBb3xdMeRS4sqlbAE7L9dfU9L2BAXekVeCB67k7H/lDPiuk6lukCBtqu5tDuZ3r7bRqrZTkKOI5caBIn1xX0b2DQPSZbrhzR9opDBBW4Tu5NVH7LB1d/3qO5A6HwaBu+kbTIOlQVZalwt2M4iHUcuPdRdFp2Wld/LcQS0d3z9rGeLSzbiKVs0xO5k7rlbXOeB99IiWmwIdd8G8k5RtXvxyCWgNwpeZunKtMefjiNXwapU6mugFdvJXgGYQP3scImHxO5kVV4OV0+lojqTkXE4aRQvqDR5ZHNKwOS/kx+OI5d6tUqpp9V2jS+f9uxwkT/E7mTtp+1wXadS1psOYsE7FyPe+SRKL/QHRQe0gUNnxHtnEq3git3JwGmWQedd6mo2ofPKJP1n/ktDed2SMYzbnWzWcR3i4p4hdidb+luJQVwpKnYna7JaNmpXqHTgLzET75dn3E66TR1cxO5kxgsNrizT2J3MEDI/HK6eShcreGSWUr55kBi6h3zAIC+0EiNZSZIp1A5/OI5SUzO5TaJNB08jpZGFwKCAsd8hh5VFdrhid7I+N4erpdJ+JpHaei8NMnUCzu3qRhHLBByuUCmDGTw7joNX35154Bp65A5XqHSInho7jpoQoRqBwFWj0oxzuEKlTVL9BMexbxypgWvIBxyuUOkQPTV2HDUhQjUCgatGpRnncMXuZGbGNX4EgRsh8AJH9KXN9qyf4Fq7vnGkBq4hH3C4QqVD9NTYcdSECNUIBK4alWacwxUqbZLqJziOfeNIDVxDPuBwhUqH6Kmx46gJEaoRCFw1Ks04hytU2iTVT3Ac+8aRGriGfMDhaqlUvtSFGS/+GDV2J1uuWuBnACvXGruTpRUImSovAOSLJz5bt1t4F6013fSgD6rVnze99ZqbWVzdvRpaX8bTl+UJqwToxrIuRAJn80+pT7aEzXFk9KhSCUsgr/Ur4pwMCBOony0uty6Sfg6sOjALj+q3uxg7vUoBMfHS9aVZum59qfJ6C7ia20eHrNtJaeqCpCZs2XLPBUQQVAMWF7hQsjbNffV6jHwLbrOrFBlpGLxzsVdDIazGiHyvYet2UgvgAGMKHWiIoR1oQPScQYvLqdT+JD/ho4yEierpSHvQHI7/SSda8/f4D7FKQ5JkL+1gIn86lkygl6Z80vFwOsKIV+/I7yAUc8o5tEaU7/qcLK7uiLfUkk+luKkC/Boh+zYkjs+l5LBvg9aF2kvhqNF7DTmOXA2rUqmvgaa7aX+IB3BRNz1bXCRLPJyQwNOybJK6DEyWEzSF2iFTJA+hKQx6LpmkAkC43FFyS7qFUm3Kajnr0Zs9qvuQcbi1Kk0NHpPdusrvcj/rdnKLdSrN5skV6pAlv1kCFpftPNPgi1+XoMIqMKBa5uSKL5n+QDxTxGaMTSY64jUvI2RDT4Sy+kh3tbi6fWndgbACGkYEGCbo80l02dqxc0Hd0VcwzKZld4vNpzfh/tsFrds5lcLUI+z4cfj0wFIBqgvhYZ9cuk2krS5qb8ri1AEzZ0RdqF61HSK8k8V1hUp1D97YnayApSddxAauQE+ad5xhn8AnkafZPnBYZQvzvr+s2wGlfFvRFcpDwy2V0iY+FYCS20LSYtzoSxmC3ppjtj1bXNeoNHYnoydmOIpbmKcrviUBO5Siqz5yWLWl4xlc1NDjXsTEpzRzBLAk0Xtm4QMAjfBMJ5x6xdQsyuOwxmqQx9jL91K5u3mOW3Iq97K4uirlIYCcuWdIlFOsxFDuCStFy1BZYjQLnmH6gKq/6S0dR6mptNZ0t/TUqe4y81H+sFx4CKg3LdotZmZxkUrNAXyE5OlZxGxVmjXGbpa0lzPjJq+hUuOiR/jbmDwmmXPaiUpv8UnfVJms291U0W6xMIFr6Kk4XK053qE879HYcbxHBCN1DlwjtOz7VPvfXBvK8x6Nw+2Gnnrgeg2u6EuH6KlxuJ2yWBEKXCsgqYnDFSpVNEMhx3Ho2js0DlxDD93hit3JzFxj/AgCN0LgBY7oS4faODV2rZ0mRKhGIHDVqDTjHK5QaZNUP8Fx7BtHauAa8gGHK1Q6RE+NHUdNiFCNQOCqUWnGOVyh0iapfoLj2DeO1MA15AMOV6h0iJ4aO46aEKEagcBVo9KMc7haKl18aWk+RpXUC9/x8rK1PG1mjJsF3EmC48iltl+cygei8J1qsaSkqYAwgfq5hku8iD795n0FzAf09bxMbPpSn/Zw0AxM+j5/OFw9lba+BafvoRMUCRAK+cRZAhiZv8VfOus+Ifo1MVoLVKmEJcB2Rb3gmpwy69m5XV6HICsTYLUKONIaFuhsa+x3YuNwXaFSWang15dye0ZOWVH4XEAdR376IEhcVwHrS/MajrSLz/2q1LTvxA64DfkJgOVHMMPZede4StH5NAyUkTgQWzwYSNth0HHkGgAH9DYI/3h++mFHGXztzGeLCxr6ZaUTq8ffyxZl0t/CLtDcB5BlPnjN2jK3fcZYXCPrS0v3SMqUTmDdvkeF5lQoHUd2BqtSGeEbaMkWdMvXznw2uLRxr1U5eUsRJ4Wz2wBYvHxSjAZXe01Mu7UzDrdOpflZKPHas9lbnOPIxQdnwsGYgZZsJ3Uv5uDPBhfKzBva91KxtAB1I5VJMRpc16qUe0WBaEa54KnmGbTijdFefjiOXGyoIzoQhrPpMoazmPJscbX7APcuIA5GuOyRJ3UnxWhxdUe8lRkg8iDpP/3sEb9CkKfWru0+m735JnKkCaHR3ckmda/WY0Rc1c0TddoCyYhKbV+qd0Fjjd19yOEanz3Kf1MZ/0uMmW3fPUa7ml58RbyKKij9qgSg2nIJxE0cdG7n/hKT/ozHAzQkozyRITX38OIqsyTz8HO4eiq1Iwz80zNhSocBRM1hjoUtyPIfHlI0P4YpYDqOUnceUKRKkpOlQ6aRpO7oixI5b8DhShUVL0LXaryX0gVgX0Yu1ngieg5XS6UT1fh9quI4vs9N5sk1cA09S4crVDpET40dR02IUI1A4KpRacY5XKHSJql+guPYN47UwDXkAw5XqHSInho7jpoQoRqBwFWj0oxzuEKlTVL9BMexbxypgWvIBxyu2J0sT8LG/4PAbRF4gUP70peXlyG537lx4BpygMD1Glyh0iF6ahxupyxWhALXCkhq4nD9D83IPdTyu8jpAAAAAElFTkSuQmCC;" vertex="1" parent="1">
          <mxGeometry x="550" y="346" width="311" height="134" as="geometry" />
        </mxCell>
        <mxCell id="G7QavIfijPGkKQ4PRfSG-6" value="" style="endArrow=none;dashed=1;html=1;rounded=0;" edge="1" parent="1">
          <mxGeometry width="50" height="50" relative="1" as="geometry">
            <mxPoint x="79" y="290" as="sourcePoint" />
            <mxPoint x="1039" y="290" as="targetPoint" />
          </mxGeometry>
        </mxCell>
        <mxCell id="G7QavIfijPGkKQ4PRfSG-7" value="" style="endArrow=none;dashed=1;html=1;rounded=0;" edge="1" parent="1">
          <mxGeometry width="50" height="50" relative="1" as="geometry">
            <mxPoint x="80" y="500" as="sourcePoint" />
            <mxPoint x="1040" y="500" as="targetPoint" />
          </mxGeometry>
        </mxCell>
        <mxCell id="G7QavIfijPGkKQ4PRfSG-8" value="3NF" style="text;html=1;align=left;verticalAlign=middle;whiteSpace=wrap;rounded=0;" vertex="1" parent="1">
          <mxGeometry x="120" y="510" width="440" height="30" as="geometry" />
        </mxCell>
        <mxCell id="G7QavIfijPGkKQ4PRfSG-9" value="" style="shape=image;verticalLabelPosition=bottom;labelBackgroundColor=default;verticalAlign=top;aspect=fixed;imageAspect=0;image=data:image/png,iVBORw0KGgoAAAANSUhEUgAAATIAAABYCAIAAAD5vOwaAAAPJ0lEQVR4Ae2dMXLcuhJFuTWHzlyq8h6UaQsulWKvwIETOdACnPvV/1J5C8qmXqAtOJv/u4G+3U2CHIBjSUOip1xvMGCDBA7uBUCK5Bv+8/TfY3yqCRwOh+rYCDwGriYRANcQtlwHrqlUt8HQWbcEmhoOXGTLIT5BIAhcBoEDf8iWv5//xL9KAsMwVEZG2O/nP4GrSQbDMKTZNWzZNiSFzlp11hTfeXDYss2NkEvYEihqEoGrhhJiwpZhy5UEoKGaRNiyhhJiwpYrRRk6g4ZqEoGrhhJi5mz563p6Perj959nXBP6djMMN79w4LdKUEOuH8h7P79+GrUp5a+ridcZ43KtO9x+zMddt/+dlfK40lBoNfblG6T18GUYzE/kv2riXQ4636IlW56j2qmqLsKWdmShnljvHK+zpLBPt/9g7g1bAgUlPK4/v//5/mEYPnw9JJ3wiClWFIdQpu2veRFPxdacIwdtLvg6terYlmn+XNvxXmdkyw8frYzClku2nIzRhAsuVa+u7Z1md23eljTOfbr9SlPNwAMeFocZ6yQgMbI9Qen0yQs/J2LaoSwIsXM3cPJYyzuwE5TTgXQMGUYXsaNuPqMzpra8fmBz5hnAteg3HSh/5iihpVadE1DFNm4gs4RrptqpU0Ds4/efD19M7/+6Hk50eglaWs5QF9g1ICKvb8zKuUFdM004ewpdmi1FSPk7tydVOtmG2SUZsap4HZICkgE4nQoSAi5FkdkeqmPKnFo09RA3EsV/P6vTWO6y+Cmz0GBzXKFJ1TvRx2JvKSJHKetMK2xtaZSEgJMY3WRemEzmKnaZ+Q7XMnZBZPrLAxyNrdIjqeGmFKAh8YcFIz0uB/r9TAFyQquCqVDXWBV/C/6SLe24osezTG0ajWTBoSzsJAnDyCqPSsHV2WnfbszCBgFu7KS94VhaSe0qpWw6TGja+msR2bqY43RmRgrbzGnFqA7aTNGHrQYwslZ0D67VVTUs0Xi3gg6Xbe8UshCw/QUlIDHTOqeuHOMOpwHSU8xEDkpWVNufVNdr8XwlW4rgkvF4GhQK6pN8dTRTEAQPX+y06Wds2i0r22XbVd+kt/RwtptzGDpjKo5TOU5nxpbpYsb1gzSH9kPp9KHzz1pbUs39Z3ld8FoSmSBdc6BZXFPO0imuv7JbDrcfVVqliml361bZIedQX7BgkODmkHUJb6O61qDQik3bLjmvZEudwcSNfyThcFj0lL759e3GlS1Yzo1nJ7loP9ljJTRUJR0aT+7KBSzojA/05RrTuJUF0nYIt2kEjGZL6bCaTr3AGI8LYlCkIo+0zhSHaO/wOvbh+wfN0bKmvU5dOd/iZapJVHrEZz2ony2Lh3iLzNeyZZ7xiEi2GSgYe5Bn1HgcPNiTPdVoGsbSdKFOk6lpgZQGm+NyPO1chwDTtQt7001eZ3oU3g+JQ3dOB0pjfMrnVlit2PSoyaLCc0aQ1qa9RrzHNf4DSfGUb9RfRGA4/advW0okZ7yqfeHOM3nnK9Slevi70JZs6VdQ//9VpycW2fVN/ts9XCeMqCUZ8Zgyq1aEmNpJlPPHrF6ygWkD9j/DRQ1jdpX2aHbYPhd5nelRcjWc57NLyZwPcpHJWtGmjS0dqAS/vZ4zWF5LT3OH87jS0QmafJIlOB8Eci/LJod0qf6qLtWSHktP182S9cPNl3xp4zkPGalip9S1VI05FDX5c7Y843hWZI0yOnVCf0atGmtykl1JZxdUvZP1f+OAv4CLdCUW/du9+cY0Th7uomxproNfPPe/oLOLb+NJ9dQHnI+LFjv5T2j7H/4uxpa8RFm7ZsAqUdZE6fs1e/F8ndVregeR5+FK/Wumyry+9d19xpWCSyP8CrbsYxI4T2f7H+9HQg9cIyDLP8OWKx0SOlsW1mhr4BoBWf7pbDleE8TvIBAE3omAvmIrvdUn/ltDAONZTXDEBK4mDQBXvCe2idsR4NqK9RoduJp6HrjClk3cwpaBq41AU3TYsgmXBgOcZkVqnkDgmmdT2AJcMVsW6CxkAdxCTGwCgcAFFDUJ4BrZ8vFuegHq8/1L3iW23j2agzze5jJ3TyY3JZ/uBi0+2brBDICzdX/5cTUMV/f/mrx/769SztPdMDhcJmj/yREuBlVSC1FKn35ZHY96ilSwZcFdrB+y3y35EQnKhuyQgNgS6/3b8uX+89Xd7dXVDxm+jsdj2JJl4GxpFUJpGciI1ZBUR77dl2DghpoEcNXbkqbK7FjimEc1Y9GX+88SkKw7kFh3RhnglHJaEVjNWVtqXI+pAq6MQeVEVuThvkdAvs3AVW1LDP9Oc2RFmSVs+vj4RPPq/gY/gAPPx9tEQHVGm4DL2pWnBV6ryUSREKXl2x5niSku4QZcTjaytdNv4CrYMi/y5Ws6Qx6Pj3d5BTKeIcWiGWsHtgQKHoMw6hdsCSGWV/5m3bEfUUJnoyaRMPKCK0mI4PAnzi0JVcGW5XNL0hmQQYvd2/LpThdgFtHUlnbaFJHKTMu/bXEJ2Pp32ZaEAuc7JCGxKF+22OOqobIfgavJlrL0guaOxFRmSJvO1dj7bJkkJesK/s40gEjcWEIxLS6EK7vx4sOgM62p8ySd6BgJmcW/FugoBVzVttSFa2Knl3ysLUczbUmL26YMcNSMyfym7Z3YUi9ZGwButjT5u0k6XPm6/XjocRAmSHeDoqYhwFVvS/27iDsLktmgKDuVaU2lthADcPmCFk4mU+XhRiTAh8Y1WbkVtvKpqZ4mbIFFRR0tLh7FhIAtq4hUY3Z7P2ngKtjSrcnohz2lTBuRQ8TIpfwZTZV7vxJrbKbC4XXp7eOpK7GqThq58mc8jeheN5uCzrIYpKnpW9ZZ6RoY53V8YrlwO8Fm+/+tKm519lbH3PBxAldT5wHXaLZs2kmPwQDXY+Pb2xy4mpgBV9iyiZvetdhWrNdo6KxXAG3tBq6w5UpwbcV6jYbOegXQ1m7gCluuBNdWrNdo6KxXAG3tBi6ypb88Fr+CQBB4NwIH/sRsuXI8ayvWazSG/14BtLUbuMKWK8G1Fes1GjrrFUBbu4ErbLkSXFuxXqOhs14BtLUbuMKWK8G1Fes1GjrrFUBbu4ErbLkSXFuxXqOhs14BtLUbuEa2xNOo5kqU3qaIrafvicWNsvrKlrYaXmg0wHH9AERwje5cHzfCP8Q03rrD3x6XufeVgJl7gPlpL4bopLVDIotNAq6CLad3nKdd4cERJCgft/8j4d8Vwrdi74c1wDGT0d3q9FNvvy50QO+2JDFMRy56nibfu7+/R44KKpjPgrrqbWkkSByz04xFSXMFS+MhpvnabGgLwHGdDZP0W14OONOi3m3pHq0URmWvytauvqGualtad2na6symDUwNNpmbTQIct2Bky8LPtLqV0Sohus/vrdGzg83iOFVxj4uaLyhQckY22N5TArgKtpTzpPydOZK7sBatfZdPfhpzR/oDOFYL+dB+zArWqI2W9+k8ijJderqi25cKF3AJq+RVkITG9gWirjXAVbDlZDzjXa6yJZ9YmjP7uspdchTAcSVH0yO7LjnNrRFgURNgT8svucHn1c3hIiYyW2qamciIT+dEOxrEW+EBV5MtxWCqOQhu8q6k/AZUKdJawUuNBziu4MiW5Qtg5i1SFlfhVUCX2uj19fK43H7kqsSUyd4045q9+AO4qm3Z+Iotnid3uCABOMY7b0sdueyA5SVorl0vdtaGN3pcriG4/IMEbSZuO5SNa/n8D+Cqt6W+/kjGOd49tIXEzAvO5iuzpS0Ax5Ue2ZJcJ38AMA4cn1sm2dngLRFoqqvDNacQk++k1XSkXQQDV8GW9hoGpzF6kQp9DsEglClX/o9dyMkbcEaxfXYAx00BEGmoOy/SrXK6nrza7ZVYdzuBMGGQ5Ez+OIDbl0tjC6CukS0bd9NfOMD11/Q1LQ5cTdSAK2zZxC3e5RO42gg0RYctm3BpMMBpVqTmCQSueTaFLcAVs2WBzkIWwC3ExCYQCFxAUZMArrBlDS6NATjNitQ8gcA1z6awBbjIlnIZMb6DQBB4ZwIH/sRsWRi0FrIwni3ExCYQCFxAUZMArrBlDS6NATjNitQ8gcA1z6awBbjClgU6C1kAtxATm0AgcAFFTQK4wpY1uDQG4DQrUvMEAtc8m8IW4ApbFugsZAHcQkxsAoHABRQ1CeAa2VJv49QLUnqbIrbiLlk6Fu6AtXc58hMkaR8uuKZylxwDcLaShcdK8QSJuQ/bFukkPcaFe19JGuYBLs3flVpaexm4Cra07rL7xd39SNBWyA4Jm5lMq8a2+9tkGuBM7V/uP1/d3V7J4/a8JWzJGEa4aPyavpCBWMUrtogXcNXbkqbK7FjzUJyxKD0eUbC0tavR8kaTAKf1f7qjB+pHzYQtNa7H1AiXe7RSeJS9Klu7+gaualtanWnaPFV4tGmFaXyrmdtNARyaIFIzw1Z+nJcXadauxC19dP2mq/0drSkAx+MqDtxl2WAPXSWAq2DLrBz5ms6QR31TgQMtAhWSpEh/CiFbtvsNcNIEvG3s6EZ9jFxqS+NbZCKRVvvTBZ4cZqPfHheuTbAsfrxwo5KEsCnOLYlKwZaFhej4bQ7Q4qItk5RIeTo5bFReqLbXGZ9aw0tkRVHV1JbGgdibG8hscURsPOFwUQPlNEfTJKFBuNHaao+rhspuBK4mW4q7oDm3cCW+7rJHrstcfmVVLysM4LhaSVKyrkhrgzQJAJG4kebSseCmxYXwZTV6fW08LrcfObvx8gA3F9vLD+CqtqUuXN17kMx4T3xLM61ZvG0fL8BRU0hDMj1y09R7kJfYUi9ZGwiGnsndUdLh8u1C25Gg7ROkvtDOfwFXvS1bX7GV9cqXNJx2N40W4OiFdtPL/XAjErAljWsybBW28t68yTcNKlXe4nIDE2GRpYEiUo3toO0rmgBcBVu6NRn9gKnK5+W0GuGPnSrZjSlb6K+o5uUVATi+7iU203ryuvT2kUd9brjRHGeOWe0VVEJicHEG0RgToA3IH6/zlWwPKeAa2bKHtp/VRoA7ay/dFA5cTV0NXGHLJm56H0ZbsV6jobNeAbS1G7jClivBtRXrNRo66xVAW7uBK2y5ElxbsV6jobNeAbS1G7jClivBtRXrNRo66xVAW7uBi2wp18biOwgEgXcmcOBPzJZt49nhcGgr0Hd04Grqf+D6HwFLqXNpHlXQAAAAAElFTkSuQmCC;" vertex="1" parent="1">
          <mxGeometry x="60" y="660" width="306" height="88" as="geometry" />
        </mxCell>
        <mxCell id="G7QavIfijPGkKQ4PRfSG-10" value="" style="shape=image;verticalLabelPosition=bottom;labelBackgroundColor=default;verticalAlign=top;aspect=fixed;imageAspect=0;image=data:image/png,iVBORw0KGgoAAAANSUhEUgAAAMwAAABECAIAAABCo00QAAAIPUlEQVR4Ae2bO27jMBCGdbWU6QIBvkO6XCEQXOcEW6RRihwgfbaw4Su4E1LkCum0mCHnQYuSSK0jO+EIiyxNDSny5zfDkSVXXdf1diQrYHIlSwWGTq7KDlPgWxXoug76Pxy/7F+iAiZXolDOrKqqvu8NsjwHM8gMsjxisvRi11zQqtgmFsmWEGmRLMthDDKDbIkC54Ls/V7uNx7/8G3B62NVqY9c/62Fi1x0fEZhJAOh7l/1Ug1r9NlVytek2Egk+/t8U1U3T50D9u3pTsCi0UPl7fPb+EpkwT5jTBedMVtnMMevHwTZqss0on8csj8PVfXwrla0a26FOVe/6ugNspH1U2sUD5CrLtPIIKOQTUZ7t97wF4/b57fXRxXS3u+ru+ZvfMJOESDYHcKxbM1632HL+we1R2OUxQ5mLjS7AIsN8iLZcMBQc9c8eQ1vnjpAAQ/ePQ7HL55+6PBRbQcC/vcyLRZn2DAGmZNgDBQKKspFFFgBcBE5VCuOjlz4OkDnhA5d6HAEA9qvlQOIQeRCw6mesWYImUNE/yVvkQEjSZjOOuycj8Es/C4hBsevmFBj01QC8tqROKqfjGU6o1YHzC4GX8byQKPRLzJ68DnnglwYGaWSgzsPLicGwZZNFwUKJREEY1rLsQX4lvohZOEwBCx0G75Pono9ZV3maaJfSZ/BrAcz0j2wqtSVgix9mQaX4G4XFWKR7EhaRHuMjZ7WvmtuKQ5F20Z7pg6RS4aMCzhh0BGWCn1dx4vTTHEE7vOrpi40lEtq9BofePoaC10WKaCH8GBSB3ORVuoUVQYD8LDOLpPqJ76OeQZRyDAbkIQJepS4Eh09yHfXvD7fSJiJjiNEx01Aq4wezEFRchG6KNEc7Xy9yrUj2fRKBwKSCKRYAFnqMlEn09dNPhuH7ADjVkECRkwhKj56pLA6uSeNjFXPmcBV5J1eyF8UU2DnyhIk3CBlT0meswpCkRGmnM2AjKOXD8M4C42FLpO2hyAnQ22nvFcJyJejrrTgcjMRRpCUKf+PzQhksGA6YqtYTaN3a0z5uMvZkzIkJAa3AhFOrqWhAYHwuHl4dNslTBUdwNfTN3n/I8GCtjmQ6QGTo2qwdJm1RYcRoea//RYB/f0pd+XlohWE+qRlWiDLWJMJyDK9HCZDM1kxqIxN7FvrQ8gyhbqsOJdYprNBBlFn3SD8rRhNd/5zIbvIMp0FMsgJZN8MdzS3r7m/eiucXsUrP3sRyNTuqUSVlGM2oA6Waa2YehbIZqf32wwuAtmVO97E8AyyJQ5gkE0gNTwlkKkQbEVT4MwK+B+SZP3IqXBj55qFi5A+fYlk6W3M0iDLYsAgy5LLGxtkWaoZZFlyGWTL5YIsb0nrUtuYXFkrH49kny81311s96rD/ZbqtztVXVoxhGyHooSCOKE27Wdp0sTmG4MMBCLJoFy3H9j0o62ryjEHFBas4ACyut54ZZzIuwadsWCJNGwxyPT5HtxUwGpKjl+iyxCybVNXIs5nu6mhxiBDzdIh+2w3Vf1i4R9kG0LW7tuaw/9HW2/aXRDs3ZYK4U3SD9wZXPohlX3vo2BVCbVi6XcV2EmIabBX5StcoxnIMDlzWydAtt2zWLSfinsXVIpA9uH0ARE+X+r65VNlFMo/Jf0Q+x4Y8nrGWoWbibOUJrvtpqbmuy3nNte0GpOQYfZKTgaicK4G3lPwXhCDzLPV954ewQWAoLwWz2KwQT1PNYTK01CkU2TJXoinj7ZudrsG+99vr3NRxiELCAP/DOYfCHdNXrPKWKKQ9W6NKcYIZAElWkbkzO2XnjYJWjwP6QeqxGDXAI4cNbnMDa+nMAIZ6MLO50frZuU/kJTXM5M1RxKHDAjAfB8zJIEjcEgNGQ8Z0OHwlhbJemCaYxjEs7bdnC4ZX+CyhRhkIIrKT3mAyiN1ssnnyymMQOZzdrkZ9/FJgSXeKzGJd1iXz/GWRyKLJYBL2RtmcnW9cckcZmanm++1LEgEMpyJC+L+r/gWaITHtc5nHV3HIIPoQhBIJIMxASjuoBy3R0qolm4PwdR9x1aprBfdHk11rMLddsjxOhLkXCUCWU7zQm1DyAoVIX3aBlm6VmJpkIkWCSWDLEGkgYlBNpBkqsIgm1Jn7JxBNqZMtN4gi8oyU2mQzQgUnhbI6D7H/jcFzq+A/ZAk9LuETxbJEkQSE4lkUmelOQUMsjmFgvMGWSBH4geDLFEoZ2aQZcnljQ2yLNUMsiy5DLLlcsHdRNCan1HCGfW8TOrtpUUWTJ5L+ruysh/ssi5ciEcyeLirHtl6a/V2Rvj0l3srpRD6pLwlgfPH59ZD9UrRJjLPOGTBq2PUKk4enS3q/0nI8E0vehejKFnGJhuFDHxR3kjxTdVLUWOdFVOfA5lspiQpytvguz/Nzr0d1NIPXbd7edWH7H+8rFHIRBfIyPwvlBx5fMpyMl77ie1Seaa8HwuV/GYiQuZFhr2CXhf9Tb+iiEGmci/3Yh26FEpDu8BvkoBhSS8MI1nwIIYTf1BSvJGSEEVeH+6to+88pg/tGi1jkIXjpJeAQ2nEL0PrMj4NIYtvbXIzThDCDUGopAJr/MXany1rEmRuxyRHxAmHPvqzNcgffSpkcZUMskgAp+/JlM9ReMtfn1/RIhWyIGhB6obuapA5CFScDzYCrue041dAkzuJZMiCn5DQV48GWa7eRdqHkBUpQc6knVyQlua0Kt3W5MoiwCDLkssbG2RZqhlkWXIZZMvlsu0yTzuLZFl6SSSjrwvtf1Pg/ArAD0m6rstis3BjkysLACeXQZYlWm+QZellkGXJ5Y0NsizVnFz/AD9b58Ku9mf0AAAAAElFTkSuQmCC;" vertex="1" parent="1">
          <mxGeometry x="400" y="530" width="204" height="68" as="geometry" />
        </mxCell>
        <mxCell id="G7QavIfijPGkKQ4PRfSG-11" value="" style="shape=image;verticalLabelPosition=bottom;labelBackgroundColor=default;verticalAlign=top;aspect=fixed;imageAspect=0;image=data:image/png,iVBORw0KGgoAAAANSUhEUgAAAM8AAABWCAIAAADnilWDAAAKAUlEQVR4Ae2dPXLcPAyGdbWU6TI74zu4yxU8mq1zgG9SpNkUOUD6pFhPruBuJ4Wv4G6/ACRAgJQoQdLKlgxNZpaiIP68egiQXirbXOm4XC6U9M9hBVyuYY2ERZCrudDR+OEK3FKBy+XSMH9N0/x5evF/IxVwuUYKFcyaBkhz2iYOMKfNaZuIjkk4HqwT7nq3t7hvm4Wm+zbTyHHanLZZCtyCtkv7sfnw5dJb9O9vH5pP7W9Tu3/dp7XPw1fD0mSoMYaiTA3uMO7xbUMtnCJXR+29j2NFBUxtGOnblpYP5E74/vzyqWnGAzfUmBW1dto2QNvXz03z+ZdoqAkgk/FtXYLTJh7isNSTfBt6JgyDFD1DaPjyEGJjLeaC44EYev+jt3Ho6rCkj99+sqPiSj8+3IuwDuCGQ+HbW7hJnUHjUbRxy3myYZNrpb4Mdna+wQTaEispAgZBAxyYrsD0J2jdN8n78Q/ZEFXBh5ELFP4MDGIUhgZEIoUBA3r7xAjaZst1+17Mx2hkCXbaEg3CS2nCikCpR2eVNnUv16VuYbAgkbD+8UDk6epu+bSGaeMuQDOIPJNct2z/SEqWMjPTJtxJJh9F1acXsKnFNRK9Q0cmCYnhR8UJvOXr5+DboBx9jF9qLEPkIG1LyLVMU5ciZk45NdoENIIP9eApX/meF+WfOpDqMOBbOAG94rpU+Uyk9m1dFc2RZsy9krbbyTWmJZuwqdHW87CJsODDwhwLQ0P0ZzpMdKuANmkxAVSRa2TCngAm8pEiLe6VngMwlauKVeCTtN1QrlX60v2kFq26StsTOiGMVYmMpxec5ocIRogAAZ/asWvSEBpkHFQREBgKh6KH7R/uYySFcgCyeKhCVtDuz9OLok005gZy7SGeDtC2zjPbbi0ZbdvtyDotd9pm+QynzYTpDWkTMY5i3b+Ho4LjrCdt6ueNjJ02k7A3pM3Ujo0aO22mB+e0zfKvTtsU2uglmIuIeZ50BZZXIH8Lht+I8cSgAiE0DJq5QVCgI5K6NOMVcNrGawVvW5XvXJnuf+fGTpsJAKfNJFdu7LTlilTPnbaqPEMXnbYhhdT1kbQ9n+6aw/fneOvf0yEsVu5OlEWFwqXjmc52/9lF2/mYVnJCisdjY1AGBIej3ZWWE2hj8jhBUEUKhcR0Za+fOW2oAA/L5++HRJiJNpPxdsS10waCHk5/sYuPx4bcGyrbHFvTCN6OTj0tzWg7t5k3EgPSBJAQtqfmTWbbaZOqifTz4xmiqsjZpB7GRmvaIIYeH3uKQGVO4O3gYP93vabIG+8Fy3DQqO4pcnPZk2gjf3YtZ2nvmTbp9UsQkKEIGaQDScL5ydt3KqPTVnJhyFG+TeJSliEBYktIpGnuuSWfJ43LojabM4k2FqgUpczZrDRjGq5ow5hYj6Rxhcm0gVz6CIvQncpYow0m/nEFLmYkcjiWk9mdytRHnqbtWqwSRI5UhmmTYso6pLHM33i6Rlua8rM60FueanBCaLBTmUQPVTKjDSeyFA3jmolm+lKZpKfUEIa0mNilCKuq3PJJlbYrDk309GINdQ2aQjYvF1gCqSln7jeR0wY9TWvM9Me2bLWeaNP2/Lfcnco4QNt+OVmmZ120LVPyLktx2mY9VqfNJJ/TZpIrN3backWq505bVZ6hi07bkELqutOm5LCeOG0mxSJtFzr0nxr9zBVYWAF/C8Y0PpWx+zYlx9CJR9IhharXnbaqPPlFpy1XxHTutE2QS/3Olen+d27stJkAcN9mkis3dtpyRarnI2mTXx53f08adoqHBUzvrptqU7Z4UdKWdqdhT2A/CG/NugbR6Bv6oqvl5pHCZA8ZE2hj8jihN4jDN8q9su5BM9EHSRuMt7RN4fl0dzjcpY3j+qooApNMW90sv21r53ba5P6Fcn8b9F9shtuaHNb2StrUvvm/p8Pd6fz9wHtnMs/XV5HTJve0lW6s3Ib1XmmDYUZO/fEIG1GROXzlFuJAnGDAcKWDthhF3wZhAQ/ykRiOMUdYHtojlEA2feC+wXy7b5P+DITLaYPRWWS+wZ4v0iTl23A7YHBm5zawxfydj1GTDLtIZ2ckFX4uTVqQv1zzRfqyQiFL04aj832uEiAExL31MGkLr9xG7IKry56nmOB20Sa4DJsx0ZmxZVbYJk4n0cauC/QS4+ydocb/RVR60iF0pgCKE4/2/KwncBQuD/weODMk/JncAxzuAKnZMlW6nVSNNhqpeuIvo6eMqmKkbqf7c1uaRVJcIR3P0pMheaeW5nNyjSXSzJCgTfs2ailbUsaWPmu0Gd6CAeFoFryl7s9ta0Hb9dweju1BzCXCn0IoAgihgBtaVTBDgjaMy7QUAIPdR1JUBNw4r+Th+aBkkEtagEb6UPZzn+nbvb+kDaUgT4YNZ5JCN1jS42NavCebqG2kk415xpIs364qvS2r+rbeu/xCVKCkzaWpKOC0VcQZvuS0DWskLJw2IYY96bSZNHPaTHLlxk5brkj13GmryjN00WkbUkhdj7Rd6NArSz9zBRZWwN+CUePPdOK+bYJcvlPcJFoydtqSFiNSMZKypcvHUoxJuFxjVGIbp42lmJJw2kyqOW0muXJjpy1XpHo+kra0mw9KK74nhUzcboQLGPUtYbX2zV/UtBV7hGjD7Wr9lF/qr1bp+Iom0MbkcUK9UIRfS9OWh/EN2aZlSZvY/QHwGXYnwBieO1B3R5sURe5vY1ykAWfuNFGlzbjzcQnddkeb3K8r08TTG+8wNXOZzyptaUMRVAYw0REjLO6XhN9qapr2P3oBJro3DBFoT9u6wnbDI+yKg0N4TSgn5B1b8ZZhqpFcJuQcQwnCBy8jxZhS7JFU+jNsffqVOereq/RkTG8XtylpC489Pnz+1UP8j9ijLKBSePxICcOU8tWLbWlDG86MI2SQFlzGQnDiKNKxRnYK+IAEpovrMVDgorSFurBL7wS4kjbRcYSpXCgkUMAgPXtBm3r5FPJxHszQqDfvVSEpsEinwKyLKga4uM3lSbTxmy+y/6J9aTiKzF0mq7QVLip4vDt++UWBgqFW+DzpJIMbk2onbnS8JshSIKZyAOt01+s8jRpt0OI4NEWXeKiJ185027WI+trOzsbSJh9zSmuhUj4sL5LPY8m6aVOF9Pg2KkJUQVmrftZoM74FQ1NREIXSq/blFSqr0gYcxOEKjzm+JYSvGiQflqiSKAiw0EtVIim+LBOjDdZYztu4dlnFK6h1rdJm+i0YECgeYu7yGn1asc6SNtIAP3kFIJQUL78otxR+0gn+XyT8hVMRCmnoCgSzmIgEQ43wa8RcKUIW2hOZfuO0rfjgNlmVpm2TXViz0QO+bc2mbLEup8301Jw2k1y5sdOWK1I9d9qq8gxddNqGFFLXnTYlh/XEaTMpFmm70KGWVH7iCiytwL+3YP4HhIcoKfgUupIAAAAASUVORK5CYII=;" vertex="1" parent="1">
          <mxGeometry x="700" y="552" width="207" height="86" as="geometry" />
        </mxCell>
        <mxCell id="G7QavIfijPGkKQ4PRfSG-12" value="" style="shape=image;verticalLabelPosition=bottom;labelBackgroundColor=default;verticalAlign=top;aspect=fixed;imageAspect=0;image=data:image/png,iVBORw0KGgoAAAANSUhEUgAAAM0AAACGCAIAAADxQZmRAAANhUlEQVR4Ae2dPXLcOBOG52obOttS1d5Bma6gUin2CRxsIgc+wObeQCpdQdmUA11B2Xxf4+fF2yT405BG6wGa5fKAYAMEHrxogENgdDgejyc/dhNwXLtRiSFwHRAypR/W2HGZmh64XGcmbqWD2pKNal10dvDDCZyTwDEccofnlzf/t5OA49oJKpodDofoyl1ntj7mOnOd2RRj4gVj1xlQ7Am4P2sUpetsj7xg4zpznTUSgIb2BJZ09vN6/ujx5e9/3vGg8O3mcLj5uadMH2ojFbn+ISj/+frnpE4xvu12C/7sePfl8MfX42Ke//79x+HPu39NTcttcfvN0ARbhTFkZSpwxXhNZ+9phjno30Jn3FV+3B6yBOel3Yz5JJ2JLotwQ1fZLzXX2ef1JO3PWGfRw+mYTXnB4HN0NuucJumYjCtOCJV9f8Duz6Ln/yrO4BC6GsajNF7MDGIpGZmE45FGUiEC9ykZ5hEWmR9YEKGXhww2x6A1nT2LS9vvHlRL7NLZvJwLcBYashS+arAB58vtNQ3iM+aqOtX8PzByTWdZC+kz6SCyizoIQ0+UV6hzaLNoEGURwjEhdCaWSTTCsSSfa450gOTPL0SfDBagFGO6b0YcW902W0ppd+hM3zoKegFOvfDrxSt1l16aeyb5sEnrJOZk8HmjytuazuBgFAWuPIdR7YASaaGPHFD1LG0vqSDT5GO+3ZSpyTMMftxmmb49v0huuJcqZ4KoG5ud4stbyHPTI2ZR6lbZ1hmASMJcjAU4tZJvFC/zDMXDvSR/1AioNSUFsF67enk0AZPNmXSGqoanvOCoMpdMPBS66AyK+XHLXVP7VMlWkuhj7fkODVydjaF57AQ3dUZVm+isAmehzRQrbQMNaZ3pGuWOKvnoo3G2oMtg0OiZdFZ8TJbXWw4oQNwYEr75+e1Gpa1oyNYdS1PxvSIvKdLEw+0WHOssljzkWW6nJ385XvkbMFlssAytGCAGAbkv5KXyB2rtz3bXsVlV84Tn0lnySTRMgAu1t9AvSgrGh+L2CV/69iv2wtxmaeArupxXrwxYc38mbbOetrTuPGfW2UIzl3JKlcusIM+lCM48/xQTbAoiKXN2h9BWGArUIBBnupSWmAdxt/auxXJuaXdNZ9rT/v8M86dcValJDqPaIfL6Jo1uYASdPb+Eqsbc09w/tqh0u4mDCS0UTfONsrxiLPJfQDBp7JholuEWpnnmSmdUI1We0NLhZrnwkRg9rc9znsVIFfKhxrsCR+kG9rfXNMEV/ulQmcxut9a7mo2XdPaOm7H4jO2X5xPvuLvxju8B15x2wIS/lc5+XsM7fpZcmpt84s+a8xkk4W+jszBbUoOOQWphwM2jQvlUg/IH+8gP1BmNaKXsk/nDpcvxDDoz6OOD2/4zG+MDdfaZxf6v7uU6a9S668wkWaUz8toedAIfTKDsQ4k7Bfz/PQTQQfcYuw1wiXgdx34Cjms/q9PpBFyuMxO3As6WbFRr11ljywNcY/rBkgGX+zNbywOcLdmo1sA10dnjvUTo46+H14QJV+8fCdzjXbK/f6LYGHy6P5Tks6sXGAFwuuyvD38drr5nTr8eriKSed3lkqKn8+ntDLiEB1VOlFSRS7AQPd2JwBCQ6CdJIbEIIDuJOYynM2gOgUwk6c91dlrRGV2iTkmaE6zQaHByV/d3V8PpTOBcPfwK2iJ3/vpdfNz9Xe6WWXt9f8KL7fZnjK+Eucty+PT4JD5O4M7HjktGC3C6ElR39usUfn16lGGVYnQOfZ4BV0VnEkVHclHkw07i9mKXnfqwMkcJ3AbVGbqWghaIuM4CBhocJx1MIXOdTehof+Y6y3jW/BnmWNk4fJax8nQqYeJ74nBKOqg/wxPl3HvNYxTl3k7sOitjZdRZemh6vMPzvBpDI7C+dSa1Cw/gYSKRn4HY8dNzQFKQ6yyAWB436esMesakiW2NYN86K5P64uDl4Sd/l4YAeakaJbrcW3DNn9EzQAzi+x5RYTgQI1zCVxgSPR9wO9cZ1V09AInswoGJGvTjOgMKD6wQQAddsfFLIABc0u0Q64FNAo5rExEbAJfrjLFshwFu29QtfP1ZswZcZyZ0wOX+zMTN1zk24gqPRf6fEzgbgWM4JHubRMe2dlym9gcu15mJm4+bjbhcZ43gbMlGtXZ/1tjyANeYfrBkwOX+zNbyAGdLNqo1cE10hjeYEp+O8pIOV/e+35Q3zSV5D7ABTldGvzKvvd+UV735mL8I1rn1cwZcUnWq1oeu15B3xr4PJWyC4tfnEs4bCAh9l0Goa7/OSIK0xIrWCKn1Z74PRXRTd+dEsktxUaXsOuMlViXM4wWHfR9KgM1urNB3nYV9dXkWkT59H0pRCL0Y5kha26h9GDl+2IeJmprg4lJ/gTZ/Bjq+D2UiCfLlPFbOdRbmrP4csOzSy1jp+1AmIuO12rSQfb5bczCRrfwu1bLOfB9KUBcGgrQLev8+lJEeM9ERgWv/82b5WQ16xqTuW5vzdr4/AFVmZ1/dhyIGlf0TaI9eA2s6mzwHpJ9pERLi7cKBiVqIXf69oM51tnsfCn9JGwmqfSu9qowem6TW/Vbz42vmuExMgct1ZuLm64IacbnOGsHZko1q7f6sseUBrjH9YMmAy/2ZreUBzpZsVGvgEp354QTOR+AYDsl/1M7WUm/HZaIGXK4zEzd/3mzE5TprBGdLNqq1+7PGlge4xvSDJQMu92e2lgc4W7JRrYFrojO8wZT4dJSNJLi6/X4TP77X2Vp4gNPKofVnp7huKsAr6MJP3Geivv5sZV2QYb0Gvz4Pr5CVLnULXdjZDp1BcwjQqpa0KM33oSwuXyEJ0jJRWiMkWCs9Va2ZuTBVzYu7rTOuL6+tLXkRyRLZZwi4xJVTFZcRML4Spi5b1l1RfmkQ6af7alyoKXHAorT5etpkvgwZ+fUSAK6KzvIsIn2+Zx9K+pVkmqZcOkCA0xXROkN9pUNO5wydTSQ0h+kZcFV0Vhn7klsCMss+lL72xAKcJrpbZ+LtarMLnV03Z8Bl0lke/vaNm6Hj5iS9kAM4XSGtM/gwHkPTMDqQyD5jH0qvowPrTOro+1B0h5ucAdduf2b6eyjSj3vzZJEgwMkp3FVx8LzHjpycGIzlySa4KjqTKHXwtCxeQIzkhq9kMbFDDLLBpXj7y/1f6YzqrvaVBFVJ3fMDQfDugCEBZX+5OLZKDlxS5y1jv14IOK7CYkcIuFxnO2iRCcBRnAcXCQCX62yRUfUCwFWveuSEAHC5ziZkNk4BbsPOLwcCwOU6sykC4GzJRrUGLtGZH07gfASO4ZD8R+1sLfV2XCZqwOU6M3HzfSiNuFxnjeBsyUa1dn/W2PIA15h+sGTA5f7M1vIAZ0s2qjVwTXQmSz2nR35JZ/qdPXrF2dULdYDTyqFX5gv7UMJL94i2KyCaw/QMuKTmdHFtSTG2AiAgCbFmAYFT2NuT1dnZAiGNC+RYZwgjwL8cHTc+qYUIyKW/AHDt1xlJUNYjJFKkOcFaWZeh1sxcPEmA0zWpS6r+91D6AqI5TM+Aa7fOmE4JE1/fh/K9+qecpq5LHHx29tNm6e58TWdxEoH/k4sSbQHZ3v0Bvg+FoJX9wxWv353CYoXWdFan0KSzMDnratoLcFoY5Nd5z6aCllNIZG2Cka/39AlcZxw3+xMZb6zQatA6g+OnZyO2p0ktR3cYtuvM+PdQOnvMhAQAzvz3UJDF0kS2GPQTAq7d/sz3oYTWBzg5g7uSoRDTA/g2BNT3GiEVjPuRVLUmwFXRGZ4AcoCn/zEOMZK5jALhwMQOMelCR9MRgItYUVO1ryTMwKTu/FwpokwHQFXbpqdI4JKa91Sxc9fFcZkIA5frzMTN1wU14nKdNYKzJRvV2v1ZY8sDXGP6wZIBl/szW8sDnC3ZqNbAJTrzwwmcj8AxHJL/qJ2tpd6Oy0QNuFxnJm7+vNmIy3XWCM6WbFRr92eNLQ9wjekHSwZc7s9sLQ9wtmSjWgPXRGcftg8lrNeQzA9YJNMFa4DTtaFX5kv7UGKC6oo0nVdPZ8BV0dnSW16smkJAiGDNAgIcGd+y8+vkC6cIcLoerDOEEci26f26WoWQr/X5CVz7dda6D4X1d/kwAU5XhSTFa4RobW108Pd39505eM1hegZcu3XG+EqY+C4s31POb1qMyzsHOF104sD9isKvT4+yTYVidA59ngFXRWcSRUcaRkVbcPj79qEIU/nJ34df/UAEOF0lrTPMExS0kMJ1FjDQ4KhBnhSyfTqLOQjZfqTmOpvoYv0UuMThkOm6zrJcLOPmaWE8pZteUlDjQsm1P4Pjn3uveQzy6DEAXLt1ZtyHQtCWtUtGlxIEuMZ9KK6z0NJrmsCMHgFJAnAIcGT8rQ3070tR03I5WWel7sXBL/w9FGTIlBDZbwC4Kv5MotTB0/94ATFCSGQXDv7ijb6nzaNtFzQBLtYGdd/ehxITuM66kMHZKzHR2dnvd+E3AC5xRBdel08tvuMy4QYu15mJm68/a8TlOmsEZ0s2qrX7s8aWB7jG9IMlA67woOj/OYGzETiG43A8HgfrY++qruMy4QMu15mJ2wngbMlGtQYu15lNAgBnSzaqNXC5zmwSADhbslGtget/rHXbUwIPXuAAAAAASUVORK5CYII=;" vertex="1" parent="1">
          <mxGeometry x="410" y="650" width="205" height="134" as="geometry" />
        </mxCell>
      </root>
    </mxGraphModel>
  </diagram>
</mxfile>
